<?xml version="1.0" encoding="utf-8"?>
<!-- Generator: Adobe Illustrator 18.1.1, SVG Export Plug-In . SVG Version: 6.00 Build 0)  -->
<svg version="1.1" xmlns="http://www.w3.org/2000/svg" xmlns:xlink="http://www.w3.org/1999/xlink" x="0px" y="0px"
	 viewBox="0 0 1342.4 791" enable-background="new 0 0 1342.4 791" xml:space="preserve">
<pattern  width="72" height="72" patternUnits="userSpaceOnUse" id="Unnamed_Pattern_3" viewBox="0.4 -72 72 72" overflow="visible">
	<g>
		<polygon fill="none" points="0.4,-72 72.4,-72 72.4,0 0.4,0 		"/>
		<g>
			<defs>
				<rect id="SVGID_1_" x="0.4" y="-72" width="72" height="72"/>
			</defs>
			<clipPath id="SVGID_2_">
				<use xlink:href="#SVGID_1_"  overflow="visible"/>
			</clipPath>
			<path clip-path="url(#SVGID_2_)" fill="#231F20" d="M21.4-3.1c-0.1,0-0.2,0-0.3,0.1C21-2.9,21-2.8,21-2.8c0,0.1,0,0.2,0.1,0.3
				c0.1,0.1,0.4,0.1,0.5,0c0.1-0.1,0.1-0.2,0.1-0.3c0-0.1,0-0.2-0.1-0.3C21.5-3.1,21.4-3.1,21.4-3.1"/>
			<path clip-path="url(#SVGID_2_)" fill="#231F20" d="M20.4-8.4c-0.1,0-0.2,0-0.3,0.1C20-8.2,20-8.1,20-8c0,0.1,0,0.2,0.1,0.3
				c0.1,0.1,0.3,0.1,0.5,0c0.1-0.1,0.1-0.2,0.1-0.3c0-0.1,0-0.2-0.1-0.3C20.5-8.3,20.5-8.4,20.4-8.4"/>
			<path clip-path="url(#SVGID_2_)" fill="#231F20" d="M20.6-10.6c-0.1,0-0.2,0-0.3,0.1c-0.1,0.1-0.1,0.2-0.1,0.3
				c0,0.1,0,0.2,0.1,0.3c0.1,0.1,0.4,0.1,0.5,0c0.1-0.1,0.1-0.2,0.1-0.3c0-0.1,0-0.2-0.1-0.3C20.8-10.6,20.7-10.6,20.6-10.6"/>
			<path clip-path="url(#SVGID_2_)" fill="#231F20" d="M15.6-10.6c-0.1,0-0.2,0-0.3,0.1c-0.1,0.1-0.1,0.2-0.1,0.3
				c0,0.1,0,0.2,0.1,0.3c0.1,0.1,0.4,0.1,0.5,0c0.1-0.1,0.1-0.2,0.1-0.3c0-0.1,0-0.2-0.1-0.3C15.8-10.6,15.7-10.6,15.6-10.6"/>
			<path clip-path="url(#SVGID_2_)" fill="#231F20" d="M23.1-20.1c-0.1,0-0.2,0-0.3,0.1c-0.1,0.1-0.1,0.2-0.1,0.3
				c0,0.1,0,0.2,0.1,0.3c0.1,0.1,0.4,0.1,0.5,0c0.1-0.1,0.1-0.2,0.1-0.3c0-0.1,0-0.2-0.1-0.3C23.3-20.1,23.2-20.1,23.1-20.1"/>
			<path clip-path="url(#SVGID_2_)" fill="#231F20" d="M15.6-23.1c-0.1,0-0.2,0-0.3,0.1c-0.1,0.1-0.1,0.2-0.1,0.3
				c0,0.1,0,0.2,0.1,0.3c0.1,0.1,0.3,0.1,0.5,0c0.1-0.1,0.1-0.2,0.1-0.3c0-0.1,0-0.2-0.1-0.3C15.8-23.1,15.7-23.1,15.6-23.1"/>
			<path clip-path="url(#SVGID_2_)" fill="#231F20" d="M14.4-24.1c-0.1,0-0.2,0-0.3,0.1C14-23.9,14-23.8,14-23.8
				c0,0.1,0,0.2,0.1,0.3c0.1,0.1,0.4,0.1,0.5,0c0.1-0.1,0.1-0.2,0.1-0.3c0-0.1,0-0.2-0.1-0.3C14.5-24.1,14.5-24.1,14.4-24.1"/>
			<path clip-path="url(#SVGID_2_)" fill="#231F20" d="M24.4-27.1c-0.1,0-0.2,0-0.3,0.1C24-26.9,24-26.8,24-26.8
				c0,0.1,0,0.2,0.1,0.3c0.1,0.1,0.4,0.1,0.5,0c0.1-0.1,0.1-0.2,0.1-0.3c0-0.1,0-0.2-0.1-0.2C24.5-27.1,24.4-27.1,24.4-27.1"/>
			<path clip-path="url(#SVGID_2_)" fill="#231F20" d="M31.1-25.9c-0.1,0-0.2,0-0.3,0.1c-0.1,0.1-0.1,0.2-0.1,0.3
				c0,0.1,0,0.2,0.1,0.3c0.1,0.1,0.4,0.1,0.5,0c0.1-0.1,0.1-0.2,0.1-0.3c0-0.1,0-0.2-0.1-0.3C31.3-25.8,31.2-25.9,31.1-25.9"/>
			<path clip-path="url(#SVGID_2_)" fill="#231F20" d="M31.6-23.4c-0.1,0-0.2,0-0.3,0.1c-0.1,0.1-0.1,0.2-0.1,0.3
				c0,0.1,0,0.2,0.1,0.3c0.1,0.1,0.3,0.1,0.5,0c0.1-0.1,0.1-0.2,0.1-0.3c0-0.1,0-0.2-0.1-0.3C31.8-23.3,31.7-23.4,31.6-23.4"/>
			<path clip-path="url(#SVGID_2_)" fill="#231F20" d="M29.6-18.4c-0.1,0-0.2,0-0.3,0.1c-0.1,0.1-0.1,0.2-0.1,0.3
				c0,0.1,0,0.2,0.1,0.3c0.1,0.1,0.4,0.1,0.5,0c0.1-0.1,0.1-0.2,0.1-0.3c0-0.1,0-0.2-0.1-0.3C29.8-18.3,29.7-18.4,29.6-18.4"/>
			<path clip-path="url(#SVGID_2_)" fill="#231F20" d="M34.4-19.9c-0.1,0-0.2,0-0.3,0.1C34-19.7,34-19.6,34-19.5
				c0,0.1,0,0.2,0.1,0.3c0.1,0.1,0.4,0.1,0.5,0c0.1-0.1,0.1-0.2,0.1-0.3c0-0.1,0-0.2-0.1-0.3C34.5-19.8,34.4-19.9,34.4-19.9"/>
			<path clip-path="url(#SVGID_2_)" fill="#231F20" d="M31.9-14.9c-0.1,0-0.2,0-0.3,0.1c-0.1,0.1-0.1,0.2-0.1,0.3
				c0,0.1,0,0.2,0.1,0.3c0.1,0.1,0.4,0.1,0.5,0c0.1-0.1,0.1-0.2,0.1-0.3c0-0.1,0-0.2-0.1-0.3C32-14.8,31.9-14.9,31.9-14.9"/>
			<path clip-path="url(#SVGID_2_)" fill="#231F20" d="M32.1-11.9c-0.1,0-0.2,0-0.3,0.1c-0.1,0.1-0.1,0.2-0.1,0.3
				c0,0.1,0,0.2,0.1,0.3c0.1,0.1,0.4,0.1,0.5,0c0.1-0.1,0.1-0.2,0.1-0.3c0-0.1,0-0.2-0.1-0.3C32.3-11.8,32.2-11.9,32.1-11.9"/>
			<path clip-path="url(#SVGID_2_)" fill="#231F20" d="M32.6-7.1c-0.1,0-0.2,0-0.3,0.1c-0.1,0.1-0.1,0.2-0.1,0.3
				c0,0.1,0,0.2,0.1,0.3c0.1,0.1,0.4,0.1,0.5,0C32.9-6.6,33-6.7,33-6.8c0-0.1,0-0.2-0.1-0.3C32.8-7.1,32.7-7.1,32.6-7.1"/>
			<path clip-path="url(#SVGID_2_)" fill="#231F20" d="M32.4-3.1c-0.1,0-0.2,0-0.3,0.1C32-2.9,32-2.8,32-2.8c0,0.1,0,0.2,0.1,0.3
				c0.1,0.1,0.3,0.1,0.5,0c0.1-0.1,0.1-0.2,0.1-0.3c0-0.1,0-0.2-0.1-0.3C32.5-3.1,32.4-3.1,32.4-3.1"/>
			<path clip-path="url(#SVGID_2_)" fill="#231F20" d="M34.4-1.4c-0.1,0-0.2,0-0.3,0.1C34-1.2,34-1.1,34-1c0,0.1,0,0.2,0.1,0.3
				c0.1,0.1,0.4,0.1,0.5,0c0.1-0.1,0.1-0.2,0.1-0.3c0-0.1,0-0.2-0.1-0.3C34.5-1.3,34.4-1.4,34.4-1.4"/>
			<path clip-path="url(#SVGID_2_)" fill="#231F20" d="M41.9-7.1c-0.1,0-0.2,0-0.3,0.1c-0.1,0.1-0.1,0.2-0.1,0.3
				c0,0.1,0,0.2,0.1,0.3c0.1,0.1,0.4,0.1,0.5,0c0.1-0.1,0.1-0.2,0.1-0.3c0-0.1,0-0.2-0.1-0.3C42-7.1,41.9-7.1,41.9-7.1"/>
			<path clip-path="url(#SVGID_2_)" fill="#231F20" d="M45.9-6.9c-0.1,0-0.2,0-0.3,0.1c-0.1,0.1-0.1,0.2-0.1,0.3
				c0,0.1,0,0.2,0.1,0.3c0.1,0.1,0.4,0.1,0.5,0c0.1-0.1,0.1-0.2,0.1-0.3c0-0.1,0-0.2-0.1-0.3C46-6.8,45.9-6.9,45.9-6.9"/>
			<path clip-path="url(#SVGID_2_)" fill="#231F20" d="M42.9-13.6c-0.1,0-0.2,0-0.3,0.1c-0.1,0.1-0.1,0.2-0.1,0.3
				c0,0.1,0,0.2,0.1,0.3c0.1,0.1,0.3,0.1,0.5,0c0.1-0.1,0.1-0.2,0.1-0.3c0-0.1,0-0.2-0.1-0.3C43-13.6,42.9-13.6,42.9-13.6"/>
			<path clip-path="url(#SVGID_2_)" fill="#231F20" d="M47.4-14.4c-0.1,0-0.2,0-0.3,0.1C47-14.2,47-14.1,47-14c0,0.1,0,0.2,0.1,0.3
				c0.1,0.1,0.3,0.1,0.5,0c0.1-0.1,0.1-0.2,0.1-0.3c0-0.1,0-0.2-0.1-0.2C47.5-14.3,47.4-14.4,47.4-14.4"/>
			<path clip-path="url(#SVGID_2_)" fill="#231F20" d="M47.4-16.4c-0.1,0-0.2,0-0.3,0.1C47-16.2,47-16.1,47-16c0,0.1,0,0.2,0.1,0.3
				c0.1,0.1,0.4,0.1,0.5,0c0.1-0.1,0.1-0.2,0.1-0.3c0-0.1,0-0.2-0.1-0.2C47.5-16.3,47.4-16.4,47.4-16.4"/>
			<path clip-path="url(#SVGID_2_)" fill="#231F20" d="M39.4-20.9c-0.1,0-0.2,0-0.3,0.1C39-20.7,39-20.6,39-20.5
				c0,0.1,0,0.2,0.1,0.3c0.1,0.1,0.4,0.1,0.5,0c0.1-0.1,0.1-0.2,0.1-0.3c0-0.1,0-0.2-0.1-0.3C39.5-20.8,39.4-20.9,39.4-20.9"/>
			<path clip-path="url(#SVGID_2_)" fill="#231F20" d="M50.6-13.6c-0.1,0-0.2,0-0.3,0.1c-0.1,0.1-0.1,0.2-0.1,0.3
				c0,0.1,0,0.2,0.1,0.3c0.1,0.1,0.4,0.1,0.5,0c0.1-0.1,0.1-0.2,0.1-0.3c0-0.1,0-0.2-0.1-0.3C50.8-13.6,50.7-13.6,50.6-13.6"/>
			<path clip-path="url(#SVGID_2_)" fill="#231F20" d="M52.6-12.1c-0.1,0-0.2,0-0.3,0.1c-0.1,0.1-0.1,0.2-0.1,0.2
				c0,0.1,0,0.2,0.1,0.3c0.1,0.1,0.3,0.1,0.5,0c0.1-0.1,0.1-0.2,0.1-0.3c0-0.1,0-0.2-0.1-0.3C52.8-12.1,52.7-12.1,52.6-12.1"/>
			<path clip-path="url(#SVGID_2_)" fill="#231F20" d="M55.1-11.1c-0.1,0-0.2,0-0.3,0.1c-0.1,0.1-0.1,0.2-0.1,0.2
				c0,0.1,0,0.2,0.1,0.3c0.1,0.1,0.3,0.1,0.5,0c0.1-0.1,0.1-0.2,0.1-0.3c0-0.1,0-0.2-0.1-0.3C55.3-11.1,55.2-11.1,55.1-11.1"/>
			<path clip-path="url(#SVGID_2_)" fill="#231F20" d="M56.9-0.9c-0.1,0-0.2,0-0.3,0.1c-0.1,0.1-0.1,0.2-0.1,0.3
				c0,0.1,0,0.2,0.1,0.3c0.1,0.1,0.4,0.1,0.5,0c0.1-0.1,0.1-0.2,0.1-0.2c0-0.1,0-0.2-0.1-0.3C57-0.8,56.9-0.9,56.9-0.9"/>
			<path clip-path="url(#SVGID_2_)" fill="#231F20" d="M68.4-3.1c-0.1,0-0.2,0-0.3,0.1C68-2.9,68-2.8,68-2.8c0,0.1,0,0.2,0.1,0.3
				c0.1,0.1,0.3,0.1,0.5,0c0.1-0.1,0.1-0.2,0.1-0.3c0-0.1,0-0.2-0.1-0.3C68.5-3.1,68.5-3.1,68.4-3.1"/>
			<path clip-path="url(#SVGID_2_)" fill="#231F20" d="M68.4-10.4c-0.1,0-0.2,0-0.3,0.1C68-10.2,68-10.1,68-10c0,0.1,0,0.2,0.1,0.3
				c0.1,0.1,0.4,0.1,0.5,0c0.1-0.1,0.1-0.2,0.1-0.3c0-0.1,0-0.2-0.1-0.3C68.5-10.3,68.4-10.4,68.4-10.4"/>
			<path clip-path="url(#SVGID_2_)" fill="#231F20" d="M64.6-12.4c-0.1,0-0.2,0-0.3,0.1c-0.1,0.1-0.1,0.2-0.1,0.3
				c0,0.1,0,0.2,0.1,0.3c0.1,0.1,0.4,0.1,0.5,0c0.1-0.1,0.1-0.2,0.1-0.3c0-0.1,0-0.2-0.1-0.3C64.8-12.3,64.7-12.4,64.6-12.4"/>
			<path clip-path="url(#SVGID_2_)" fill="#231F20" d="M65.6-15.9c-0.1,0-0.2,0-0.3,0.1c-0.1,0.1-0.1,0.2-0.1,0.3
				c0,0.1,0,0.2,0.1,0.3c0.1,0.1,0.4,0.1,0.5,0c0.1-0.1,0.1-0.2,0.1-0.3c0-0.1,0-0.2-0.1-0.3C65.8-15.8,65.7-15.9,65.6-15.9"/>
			<path clip-path="url(#SVGID_2_)" fill="#231F20" d="M64.4-19.9c-0.1,0-0.2,0-0.3,0.1C64-19.7,64-19.6,64-19.5
				c0,0.1,0,0.2,0.1,0.3c0.1,0.1,0.4,0.1,0.5,0c0.1-0.1,0.1-0.2,0.1-0.3c0-0.1,0-0.2-0.1-0.3C64.5-19.8,64.4-19.9,64.4-19.9"/>
			<path clip-path="url(#SVGID_2_)" fill="#231F20" d="M66.6-19.9c-0.1,0-0.2,0-0.3,0.1c-0.1,0.1-0.1,0.2-0.1,0.3
				c0,0.1,0,0.2,0.1,0.3c0.1,0.1,0.3,0.1,0.5,0c0.1-0.1,0.1-0.2,0.1-0.3c0-0.1,0-0.2-0.1-0.3C66.8-19.8,66.7-19.9,66.6-19.9"/>
			<path clip-path="url(#SVGID_2_)" fill="#231F20" d="M68.4-21.4c-0.1,0-0.2,0-0.3,0.1C68-21.2,68-21.1,68-21c0,0.1,0,0.2,0.1,0.3
				c0.1,0.1,0.4,0.1,0.5,0c0.1-0.1,0.1-0.2,0.1-0.3c0-0.1,0-0.2-0.1-0.3C68.5-21.3,68.4-21.4,68.4-21.4"/>
			<path clip-path="url(#SVGID_2_)" fill="#231F20" d="M7.4-52.4c-0.1,0-0.2,0-0.3,0.1C7-52.2,7-52.1,7-52c0,0.1,0,0.2,0.1,0.3
				c0.1,0.1,0.4,0.1,0.5,0c0.1-0.1,0.1-0.2,0.1-0.3c0-0.1,0-0.2-0.1-0.3C7.5-52.3,7.4-52.4,7.4-52.4"/>
			<path clip-path="url(#SVGID_2_)" fill="#231F20" d="M7.6-54.6c-0.1,0-0.2,0-0.3,0.1c-0.1,0.1-0.1,0.2-0.1,0.3
				c0,0.1,0,0.2,0.1,0.3c0.1,0.1,0.4,0.1,0.5,0C7.9-54.1,8-54.2,8-54.3c0-0.1,0-0.2-0.1-0.3C7.8-54.6,7.7-54.6,7.6-54.6"/>
			<path clip-path="url(#SVGID_2_)" fill="#231F20" d="M2.6-54.6c-0.1,0-0.2,0-0.3,0.1c-0.1,0.1-0.1,0.2-0.1,0.3
				c0,0.1,0,0.2,0.1,0.3c0.1,0.1,0.4,0.1,0.5,0C2.9-54.1,3-54.2,3-54.3c0-0.1,0-0.2-0.1-0.3C2.8-54.6,2.7-54.6,2.6-54.6"/>
			<path clip-path="url(#SVGID_2_)" fill="#231F20" d="M10.1-64.1c-0.1,0-0.2,0-0.3,0.1c-0.1,0.1-0.1,0.2-0.1,0.3
				c0,0.1,0,0.2,0.1,0.3c0.1,0.1,0.4,0.1,0.5,0c0.1-0.1,0.1-0.2,0.1-0.3c0-0.1,0-0.2-0.1-0.3C10.3-64.1,10.2-64.1,10.1-64.1"/>
			<path clip-path="url(#SVGID_2_)" fill="#231F20" d="M1.4-68.1c-0.1,0-0.2,0-0.3,0.1C1-67.9,1-67.8,1-67.8c0,0.1,0,0.2,0.1,0.3
				c0.1,0.1,0.4,0.1,0.5,0c0.1-0.1,0.1-0.2,0.1-0.3c0-0.1,0-0.2-0.1-0.3C1.5-68.1,1.4-68.1,1.4-68.1"/>
			<path clip-path="url(#SVGID_2_)" fill="#231F20" d="M11.4-71.1c-0.1,0-0.2,0-0.3,0.1C11-70.9,11-70.8,11-70.8
				c0,0.1,0,0.2,0.1,0.3c0.1,0.1,0.4,0.1,0.5,0c0.1-0.1,0.1-0.2,0.1-0.3c0-0.1,0-0.2-0.1-0.3C11.5-71.1,11.4-71.1,11.4-71.1"/>
			<path clip-path="url(#SVGID_2_)" fill="#231F20" d="M18.6-67.4c-0.1,0-0.2,0-0.3,0.1c-0.1,0.1-0.1,0.2-0.1,0.3
				c0,0.1,0,0.2,0.1,0.3c0.1,0.1,0.4,0.1,0.5,0c0.1-0.1,0.1-0.2,0.1-0.3c0-0.1,0-0.2-0.1-0.3C18.8-67.3,18.7-67.4,18.6-67.4"/>
			<path clip-path="url(#SVGID_2_)" fill="#231F20" d="M16.6-62.4c-0.1,0-0.2,0-0.3,0.1c-0.1,0.1-0.1,0.2-0.1,0.3
				c0,0.1,0,0.2,0.1,0.3c0.1,0.1,0.4,0.1,0.5,0c0.1-0.1,0.1-0.2,0.1-0.3c0-0.1,0-0.2-0.1-0.3C16.8-62.3,16.7-62.4,16.6-62.4"/>
			<path clip-path="url(#SVGID_2_)" fill="#231F20" d="M19.9-57.9c-0.1,0-0.2,0-0.3,0.1c-0.1,0.1-0.1,0.2-0.1,0.3
				c0,0.1,0,0.2,0.1,0.3c0.1,0.1,0.4,0.1,0.5,0c0.1-0.1,0.1-0.2,0.1-0.3c0-0.1,0-0.2-0.1-0.3C20-57.8,19.9-57.9,19.9-57.9"/>
			<path clip-path="url(#SVGID_2_)" fill="#231F20" d="M19.1-55.9c-0.1,0-0.2,0-0.3,0.1c-0.1,0.1-0.1,0.2-0.1,0.3
				c0,0.1,0,0.2,0.1,0.3c0.1,0.1,0.3,0.1,0.5,0c0.1-0.1,0.1-0.2,0.1-0.3c0-0.1,0-0.2-0.1-0.3C19.3-55.8,19.2-55.9,19.1-55.9"/>
			<path clip-path="url(#SVGID_2_)" fill="#231F20" d="M16.6-54.9c-0.1,0-0.2,0-0.3,0.1c-0.1,0.1-0.1,0.2-0.1,0.3
				c0,0.1,0,0.2,0.1,0.3c0.1,0.1,0.3,0.1,0.5,0c0.1-0.1,0.1-0.2,0.1-0.3c0-0.1,0-0.2-0.1-0.3C16.8-54.8,16.7-54.9,16.6-54.9"/>
			<path clip-path="url(#SVGID_2_)" fill="#231F20" d="M19.6-51.1c-0.1,0-0.2,0-0.3,0.1c-0.1,0.1-0.1,0.2-0.1,0.3
				c0,0.1,0,0.2,0.1,0.3c0.1,0.1,0.4,0.1,0.5,0c0.1-0.1,0.1-0.2,0.1-0.3c0-0.1,0-0.2-0.1-0.3C19.8-51.1,19.7-51.1,19.6-51.1"/>
			<path clip-path="url(#SVGID_2_)" fill="#231F20" d="M19.4-47.1c-0.1,0-0.2,0-0.3,0.1C19-46.9,19-46.8,19-46.8
				c0,0.1,0,0.2,0.1,0.3c0.1,0.1,0.4,0.1,0.5,0c0.1-0.1,0.1-0.2,0.1-0.3c0-0.1,0-0.2-0.1-0.3C19.5-47.1,19.4-47.1,19.4-47.1"/>
			<path clip-path="url(#SVGID_2_)" fill="#231F20" d="M16.6-47.4c-0.1,0-0.2,0-0.3,0.1c-0.1,0.1-0.1,0.2-0.1,0.3
				c0,0.1,0,0.2,0.1,0.3c0.1,0.1,0.4,0.1,0.5,0c0.1-0.1,0.1-0.2,0.1-0.3c0-0.1,0-0.2-0.1-0.3C16.8-47.3,16.7-47.4,16.6-47.4"/>
			<path clip-path="url(#SVGID_2_)" fill="#231F20" d="M32.9-50.9c-0.1,0-0.2,0-0.3,0.1c-0.1,0.1-0.1,0.2-0.1,0.3
				c0,0.1,0,0.2,0.1,0.3c0.1,0.1,0.3,0.1,0.5,0c0.1-0.1,0.1-0.2,0.1-0.3c0-0.1,0-0.2-0.1-0.3C33-50.8,32.9-50.9,32.9-50.9"/>
			<path clip-path="url(#SVGID_2_)" fill="#231F20" d="M27.6-54.4c-0.1,0-0.2,0-0.3,0.1c-0.1,0.1-0.1,0.2-0.1,0.3
				c0,0.1,0,0.2,0.1,0.3c0.1,0.1,0.4,0.1,0.5,0c0.1-0.1,0.1-0.2,0.1-0.3c0-0.1,0-0.2-0.1-0.3C27.8-54.3,27.7-54.4,27.6-54.4"/>
			<path clip-path="url(#SVGID_2_)" fill="#231F20" d="M32.4-55.9c-0.1,0-0.2,0-0.3,0.1C32-55.7,32-55.6,32-55.5
				c0,0.1,0,0.2,0.1,0.3c0.1,0.1,0.4,0.1,0.5,0c0.1-0.1,0.1-0.2,0.1-0.3c0-0.1,0-0.2-0.1-0.3C32.5-55.8,32.4-55.9,32.4-55.9"/>
			<path clip-path="url(#SVGID_2_)" fill="#231F20" d="M32.4-57.6c-0.1,0-0.2,0-0.2,0.1C32-57.4,32-57.3,32-57.3
				c0,0.1,0,0.2,0.1,0.3c0.1,0.1,0.4,0.1,0.5,0c0.1-0.1,0.1-0.2,0.1-0.3c0-0.1,0-0.2-0.1-0.3C32.5-57.6,32.4-57.6,32.4-57.6"/>
			<path clip-path="url(#SVGID_2_)" fill="#231F20" d="M34.4-58.4c-0.1,0-0.2,0-0.3,0.1C34-58.2,34-58.1,34-58c0,0.1,0,0.2,0.1,0.3
				c0.1,0.1,0.4,0.1,0.5,0c0.1-0.1,0.1-0.2,0.1-0.3c0-0.1,0-0.2-0.1-0.3C34.5-58.3,34.4-58.4,34.4-58.4"/>
			<path clip-path="url(#SVGID_2_)" fill="#231F20" d="M26.4-64.9c-0.1,0-0.2,0-0.3,0.1C26-64.7,26-64.6,26-64.5
				c0,0.1,0,0.2,0.1,0.3c0.1,0.1,0.4,0.1,0.5,0c0.1-0.1,0.1-0.2,0.1-0.3c0-0.1,0-0.2-0.1-0.3C26.5-64.8,26.4-64.9,26.4-64.9"/>
			<path clip-path="url(#SVGID_2_)" fill="#231F20" d="M36.4-56.4c-0.1,0-0.2,0-0.3,0.1C36-56.2,36-56.1,36-56c0,0.1,0,0.2,0.1,0.3
				c0.1,0.1,0.4,0.1,0.5,0c0.1-0.1,0.1-0.2,0.1-0.3c0-0.1,0-0.2-0.1-0.2C36.5-56.3,36.4-56.4,36.4-56.4"/>
			<path clip-path="url(#SVGID_2_)" fill="#231F20" d="M39.6-56.1c-0.1,0-0.2,0-0.2,0.1c-0.1,0.1-0.1,0.2-0.1,0.3
				c0,0.1,0,0.2,0.1,0.3c0.1,0.1,0.4,0.1,0.5,0c0.1-0.1,0.1-0.2,0.1-0.3c0-0.1,0-0.2-0.1-0.3C39.8-56.1,39.7-56.1,39.6-56.1"/>
			<path clip-path="url(#SVGID_2_)" fill="#231F20" d="M42.1-50.9c-0.1,0-0.2,0-0.3,0.1c-0.1,0.1-0.1,0.2-0.1,0.3
				c0,0.1,0,0.2,0.1,0.3c0.1,0.1,0.4,0.1,0.5,0c0.1-0.1,0.1-0.2,0.1-0.3c0-0.1,0-0.2-0.1-0.3C42.3-50.8,42.2-50.9,42.1-50.9"/>
			<path clip-path="url(#SVGID_2_)" fill="#231F20" d="M43.9-44.9c-0.1,0-0.2,0-0.3,0.1c-0.1,0.1-0.1,0.2-0.1,0.2
				c0,0.1,0,0.2,0.1,0.3c0.1,0.1,0.4,0.1,0.5,0c0.1-0.1,0.1-0.2,0.1-0.3c0-0.1,0-0.2-0.1-0.3C44-44.8,43.9-44.9,43.9-44.9"/>
			<path clip-path="url(#SVGID_2_)" fill="#231F20" d="M51.4-50.6c-0.1,0-0.2,0-0.3,0.1C51-50.4,51-50.3,51-50.3
				c0,0.1,0,0.2,0.1,0.3c0.1,0.1,0.4,0.1,0.5,0c0.1-0.1,0.1-0.2,0.1-0.3c0-0.1,0-0.2-0.1-0.3C51.5-50.6,51.4-50.6,51.4-50.6"/>
			<path clip-path="url(#SVGID_2_)" fill="#231F20" d="M52.4-46.6c-0.1,0-0.2,0-0.3,0.1C52-46.4,52-46.3,52-46.3
				c0,0.1,0,0.2,0.1,0.3c0.1,0.1,0.3,0.1,0.5,0c0.1-0.1,0.1-0.2,0.1-0.3c0-0.1,0-0.2-0.1-0.3C52.5-46.6,52.4-46.6,52.4-46.6"/>
			<path clip-path="url(#SVGID_2_)" fill="#231F20" d="M55.4-47.1c-0.1,0-0.2,0-0.3,0.1C55-46.9,55-46.8,55-46.8
				c0,0.1,0,0.2,0.1,0.3c0.1,0.1,0.4,0.1,0.5,0c0.1-0.1,0.1-0.2,0.1-0.3c0-0.1,0-0.2-0.1-0.3C55.5-47.1,55.4-47.1,55.4-47.1"/>
			<path clip-path="url(#SVGID_2_)" fill="#231F20" d="M55.4-54.4c-0.1,0-0.2,0-0.3,0.1C55-54.2,55-54.1,55-54c0,0.1,0,0.2,0.1,0.3
				c0.1,0.1,0.3,0.1,0.5,0c0.1-0.1,0.1-0.2,0.1-0.3c0-0.1,0-0.2-0.1-0.3C55.5-54.3,55.4-54.4,55.4-54.4"/>
			<path clip-path="url(#SVGID_2_)" fill="#231F20" d="M51.6-56.4c-0.1,0-0.2,0-0.3,0.1c-0.1,0.1-0.1,0.2-0.1,0.2
				c0,0.1,0,0.2,0.1,0.3c0.1,0.1,0.4,0.1,0.5,0c0.1-0.1,0.1-0.2,0.1-0.3c0-0.1,0-0.2-0.1-0.2C51.8-56.3,51.7-56.4,51.6-56.4"/>
			<path clip-path="url(#SVGID_2_)" fill="#231F20" d="M51.4-63.9c-0.1,0-0.2,0-0.3,0.1C51-63.7,51-63.6,51-63.5
				c0,0.1,0,0.2,0.1,0.2c0.1,0.2,0.4,0.1,0.5,0c0.1-0.1,0.1-0.2,0.1-0.3c0-0.1,0-0.2-0.1-0.3C51.5-63.8,51.5-63.9,51.4-63.9"/>
			<path clip-path="url(#SVGID_2_)" fill="#231F20" d="M53.6-63.9c-0.1,0-0.2,0-0.3,0.1c-0.1,0.1-0.1,0.2-0.1,0.3
				c0,0.1,0,0.2,0.1,0.3c0.1,0.1,0.4,0.1,0.5,0c0.1-0.1,0.1-0.1,0.1-0.2c0-0.1,0-0.2-0.1-0.3C53.8-63.8,53.7-63.9,53.6-63.9"/>
			<path clip-path="url(#SVGID_2_)" fill="#231F20" d="M56.4-63.1c-0.1,0-0.2,0-0.3,0.1C56-62.9,56-62.8,56-62.8
				c0,0.1,0,0.2,0.1,0.3c0.1,0.1,0.4,0.1,0.5,0c0.1-0.1,0.1-0.2,0.1-0.3c0-0.1,0-0.2-0.1-0.3C56.5-63.1,56.4-63.1,56.4-63.1"/>
			<path clip-path="url(#SVGID_2_)" fill="#231F20" d="M58.6-61.6c-0.1,0-0.2,0-0.3,0.1c-0.1,0.1-0.1,0.2-0.1,0.2
				c0,0.1,0,0.2,0.1,0.3c0.1,0.1,0.4,0.1,0.5,0c0.1-0.1,0.1-0.2,0.1-0.3c0-0.1,0-0.2-0.1-0.3C58.8-61.6,58.7-61.6,58.6-61.6"/>
			<path clip-path="url(#SVGID_2_)" fill="#231F20" d="M21.4-27.1c-0.1,0-0.2,0-0.3,0.1C21-26.9,21-26.8,21-26.8
				c0,0.1,0,0.2,0.1,0.3c0.1,0.1,0.4,0.1,0.5,0c0.1-0.1,0.1-0.2,0.1-0.3c0-0.1,0-0.2-0.1-0.3C21.5-27.1,21.4-27.1,21.4-27.1"/>
			<path clip-path="url(#SVGID_2_)" fill="#231F20" d="M23.1-24.1c-0.1,0-0.2,0-0.3,0.1c-0.1,0.1-0.1,0.2-0.1,0.3
				c0,0.1,0,0.2,0.1,0.3c0.1,0.1,0.4,0.1,0.5,0c0.1-0.1,0.1-0.2,0.1-0.3c0-0.1,0-0.2-0.1-0.3C23.3-24.1,23.2-24.1,23.1-24.1"/>
			<path clip-path="url(#SVGID_2_)" fill="#231F20" d="M39.4-24.9c-0.1,0-0.2,0-0.3,0.1C39-24.7,39-24.6,39-24.5
				c0,0.1,0,0.2,0.1,0.3c0.1,0.1,0.4,0.1,0.5,0c0.1-0.1,0.1-0.2,0.1-0.3c0-0.1,0-0.2-0.1-0.3C39.5-24.8,39.4-24.9,39.4-24.9"/>
			<path clip-path="url(#SVGID_2_)" fill="#231F20" d="M46.6-29.1c-0.1,0-0.2,0-0.3,0.1c-0.1,0.1-0.1,0.2-0.1,0.3
				c0,0.1,0,0.2,0.1,0.2c0.1,0.2,0.4,0.1,0.5,0c0.1-0.1,0.1-0.2,0.1-0.3c0-0.1,0-0.2-0.1-0.3C46.8-29.1,46.7-29.1,46.6-29.1"/>
			<path clip-path="url(#SVGID_2_)" fill="#231F20" d="M55.6-28.1c-0.1,0-0.2,0-0.3,0.1c-0.1,0.1-0.1,0.2-0.1,0.3
				c0,0.1,0,0.2,0.1,0.3c0.1,0.1,0.4,0.1,0.5,0c0.1-0.1,0.1-0.2,0.1-0.3c0-0.1,0-0.2-0.1-0.3C55.8-28.1,55.7-28.1,55.6-28.1"/>
			<path clip-path="url(#SVGID_2_)" fill="#231F20" d="M51.6-25.4c-0.1,0-0.2,0-0.3,0.1c-0.1,0.1-0.1,0.2-0.1,0.3
				c0,0.1,0,0.2,0.1,0.3c0.1,0.1,0.4,0.1,0.5,0c0.1-0.1,0.1-0.2,0.1-0.3c0-0.1,0-0.2-0.1-0.3C51.8-25.3,51.7-25.4,51.6-25.4"/>
			<path clip-path="url(#SVGID_2_)" fill="#231F20" d="M52.4-29.6c-0.1,0-0.2,0-0.3,0.1C52-29.4,52-29.3,52-29.3
				c0,0.1,0,0.2,0.1,0.3c0.1,0.1,0.4,0.1,0.5,0c0.1-0.1,0.1-0.2,0.1-0.3c0-0.1,0-0.2-0.1-0.3C52.5-29.6,52.4-29.6,52.4-29.6"/>
			<path clip-path="url(#SVGID_2_)" fill="#231F20" d="M62.9-35.6c-0.1,0-0.2,0-0.3,0.1c-0.1,0.1-0.1,0.2-0.1,0.3
				c0,0.1,0,0.2,0.1,0.3c0.1,0.1,0.4,0.1,0.5,0c0.1-0.1,0.1-0.1,0.1-0.2c0-0.1,0-0.2-0.1-0.3C63-35.6,62.9-35.6,62.9-35.6"/>
			<path clip-path="url(#SVGID_2_)" fill="#231F20" d="M57.1-39.1c-0.1,0-0.2,0-0.3,0.1c-0.1,0.1-0.1,0.2-0.1,0.3
				c0,0.1,0,0.2,0.1,0.3c0.1,0.1,0.4,0.1,0.5,0c0.1-0.1,0.1-0.2,0.1-0.3c0-0.1,0-0.2-0.1-0.3C57.3-39.1,57.2-39.1,57.1-39.1"/>
			<path clip-path="url(#SVGID_2_)" fill="#231F20" d="M48.6-37.4c-0.1,0-0.2,0-0.2,0.1c-0.1,0.1-0.1,0.2-0.1,0.3
				c0,0.1,0,0.2,0.1,0.3c0.1,0.1,0.4,0.1,0.5,0c0.1-0.1,0.1-0.1,0.1-0.2c0-0.1,0-0.2-0.1-0.3C48.8-37.3,48.7-37.4,48.6-37.4"/>
			<path clip-path="url(#SVGID_2_)" fill="#231F20" d="M48.4-41.4c-0.1,0-0.2,0-0.3,0.1C48-41.2,48-41.1,48-41c0,0.1,0,0.2,0.1,0.3
				c0.1,0.1,0.4,0.1,0.5,0c0.1-0.1,0.1-0.2,0.1-0.3c0-0.1,0-0.2-0.1-0.3C48.5-41.3,48.4-41.4,48.4-41.4"/>
			<path clip-path="url(#SVGID_2_)" fill="#231F20" d="M53.9-45.1c-0.1,0-0.2,0-0.3,0.1c-0.1,0.1-0.1,0.1-0.1,0.2
				c0,0.1,0,0.2,0.1,0.3c0.1,0.1,0.3,0.1,0.5,0c0.1-0.1,0.1-0.2,0.1-0.3c0-0.1,0-0.2-0.1-0.3C54-45.1,53.9-45.1,53.9-45.1"/>
			<path clip-path="url(#SVGID_2_)" fill="#231F20" d="M62.6-48.1c-0.1,0-0.2,0-0.3,0.1c-0.1,0.1-0.1,0.2-0.1,0.3
				c0,0.1,0,0.2,0.1,0.3c0.1,0.1,0.4,0.1,0.5,0c0.1-0.1,0.1-0.1,0.1-0.2c0-0.1,0-0.2-0.1-0.3C62.8-48.1,62.7-48.1,62.6-48.1"/>
			<path clip-path="url(#SVGID_2_)" fill="#231F20" d="M65.4-51.9c-0.1,0-0.2,0-0.3,0.1C65-51.7,65-51.6,65-51.5
				c0,0.1,0,0.2,0.1,0.3c0.1,0.1,0.3,0.1,0.5,0c0.1-0.1,0.1-0.2,0.1-0.3c0-0.1,0-0.2-0.1-0.3C65.5-51.8,65.4-51.9,65.4-51.9"/>
			<path clip-path="url(#SVGID_2_)" fill="#231F20" d="M69.9-45.1c-0.1,0-0.2,0-0.3,0.1c-0.1,0.1-0.1,0.2-0.1,0.3
				c0,0.1,0,0.2,0.1,0.3c0.1,0.1,0.4,0.1,0.5,0c0.1-0.1,0.1-0.2,0.1-0.3c0-0.1,0-0.2-0.1-0.3C70-45.1,69.9-45.1,69.9-45.1"/>
			<path clip-path="url(#SVGID_2_)" fill="#231F20" d="M60.4-39.1c-0.1,0-0.2,0-0.3,0.1C60-38.9,60-38.8,60-38.8
				c0,0.1,0,0.2,0.1,0.3c0.1,0.1,0.3,0.1,0.5,0c0.1-0.1,0.1-0.2,0.1-0.3c0-0.1,0-0.2-0.1-0.3C60.5-39.1,60.5-39.1,60.4-39.1"/>
			<path clip-path="url(#SVGID_2_)" fill="#231F20" d="M32.9-47.1c-0.1,0-0.2,0-0.3,0.1c-0.1,0.1-0.1,0.2-0.1,0.3
				c0,0.1,0,0.2,0.1,0.3c0.1,0.1,0.4,0.1,0.5,0c0.1-0.1,0.1-0.2,0.1-0.3c0-0.1,0-0.2-0.1-0.3C33-47.1,32.9-47.1,32.9-47.1"/>
			<path clip-path="url(#SVGID_2_)" fill="#231F20" d="M26.6-37.9c-0.1,0-0.2,0-0.3,0.1c-0.1,0.1-0.1,0.2-0.1,0.3
				c0,0.1,0,0.2,0.1,0.3c0.1,0.1,0.4,0.1,0.5,0c0.1-0.1,0.1-0.2,0.1-0.3c0-0.1,0-0.2-0.1-0.3C26.8-37.8,26.7-37.9,26.6-37.9"/>
			<path clip-path="url(#SVGID_2_)" fill="#231F20" d="M30.1-35.6c-0.1,0-0.2,0-0.2,0.1c-0.1,0.1-0.1,0.2-0.1,0.3
				c0,0.1,0,0.2,0.1,0.3c0.1,0.1,0.4,0.1,0.5,0c0.1-0.1,0.1-0.2,0.1-0.3c0-0.1,0-0.2-0.1-0.3C30.3-35.6,30.2-35.6,30.1-35.6"/>
			<path clip-path="url(#SVGID_2_)" fill="#231F20" d="M10.9-29.6c-0.1,0-0.2,0-0.3,0.1c-0.1,0.1-0.1,0.2-0.1,0.3
				c0,0.1,0,0.2,0.1,0.3c0.1,0.1,0.4,0.1,0.5,0c0.1-0.1,0.1-0.2,0.1-0.3c0-0.1,0-0.2-0.1-0.3C11-29.6,10.9-29.6,10.9-29.6"/>
			<path clip-path="url(#SVGID_2_)" fill="#231F20" d="M6.4-31.6c-0.1,0-0.2,0-0.3,0.1C6-31.4,6-31.3,6-31.3c0,0.1,0,0.2,0.1,0.3
				c0.1,0.1,0.4,0.1,0.5,0c0.1-0.1,0.1-0.2,0.1-0.3c0-0.1,0-0.2-0.1-0.3C6.5-31.6,6.4-31.6,6.4-31.6"/>
			<path clip-path="url(#SVGID_2_)" fill="#231F20" d="M2.9-35.4c-0.1,0-0.2,0-0.3,0.1c-0.1,0.1-0.1,0.2-0.1,0.3
				c0,0.1,0,0.2,0.1,0.3c0.1,0.1,0.4,0.1,0.5,0c0.1-0.1,0.1-0.2,0.1-0.3c0-0.1,0-0.2-0.1-0.2C3-35.3,2.9-35.4,2.9-35.4"/>
			<path clip-path="url(#SVGID_2_)" fill="#231F20" d="M17.4-42.1c-0.1,0-0.2,0-0.3,0.1C17-41.9,17-41.8,17-41.8
				c0,0.1,0,0.2,0.1,0.3c0.1,0.1,0.4,0.1,0.5,0c0.1-0.1,0.1-0.2,0.1-0.3c0-0.1,0-0.2-0.1-0.3C17.5-42.1,17.5-42.1,17.4-42.1"/>
			<path clip-path="url(#SVGID_2_)" fill="#231F20" d="M13.1-36.1c-0.1,0-0.2,0-0.3,0.1c-0.1,0.1-0.1,0.2-0.1,0.3
				c0,0.1,0,0.2,0.1,0.3c0.1,0.1,0.3,0.1,0.5,0c0.1-0.1,0.1-0.2,0.1-0.3c0-0.1,0-0.2-0.1-0.3C13.3-36.1,13.2-36.1,13.1-36.1"/>
			<path clip-path="url(#SVGID_2_)" fill="#231F20" d="M26.9-30.4c-0.1,0-0.2,0-0.3,0.1c-0.1,0.1-0.1,0.2-0.1,0.3
				c0,0.1,0,0.2,0.1,0.3c0.1,0.1,0.4,0.1,0.5,0c0.1-0.1,0.1-0.2,0.1-0.3c0-0.1,0-0.2-0.1-0.3C27-30.3,26.9-30.4,26.9-30.4"/>
			<path clip-path="url(#SVGID_2_)" fill="#231F20" d="M39.6-30.9c-0.1,0-0.2,0-0.3,0.1c-0.1,0.1-0.1,0.2-0.1,0.3
				c0,0.1,0,0.2,0.1,0.3c0.1,0.1,0.4,0.1,0.5,0c0.1-0.1,0.1-0.2,0.1-0.3c0-0.1,0-0.2-0.1-0.3C39.8-30.8,39.7-30.9,39.6-30.9"/>
			<path clip-path="url(#SVGID_2_)" fill="#231F20" d="M38.6-32.9c-0.1,0-0.2,0-0.3,0.1c-0.1,0.1-0.1,0.2-0.1,0.3
				c0,0.1,0,0.2,0.1,0.3c0.1,0.1,0.4,0.1,0.5,0c0.1-0.1,0.1-0.2,0.1-0.3c0-0.1,0-0.2-0.1-0.3C38.8-32.8,38.7-32.9,38.6-32.9"/>
			<path clip-path="url(#SVGID_2_)" fill="#231F20" d="M28.4-42.1c-0.1,0-0.2,0-0.3,0.1C28-41.9,28-41.8,28-41.8
				c0,0.1,0,0.2,0.1,0.3c0.1,0.1,0.4,0.1,0.5,0c0.1-0.1,0.1-0.2,0.1-0.3c0-0.1,0-0.2-0.1-0.3C28.5-42.1,28.4-42.1,28.4-42.1"/>
			<path clip-path="url(#SVGID_2_)" fill="#231F20" d="M6.9-20.6c-0.1,0-0.2,0-0.3,0.1c-0.1,0.1-0.1,0.2-0.1,0.3
				c0,0.1,0,0.2,0.1,0.3c0.1,0.1,0.4,0.1,0.5,0c0.1-0.1,0.1-0.2,0.1-0.3c0-0.1,0-0.2-0.1-0.3C7-20.6,6.9-20.6,6.9-20.6"/>
			<path clip-path="url(#SVGID_2_)" fill="#231F20" d="M10.1-18.9c-0.1,0-0.2,0-0.3,0.1c-0.1,0.1-0.1,0.2-0.1,0.3
				c0,0.1,0,0.2,0.1,0.3c0.1,0.1,0.4,0.1,0.5,0c0.1-0.1,0.1-0.2,0.1-0.3c0-0.1,0-0.2-0.1-0.3C10.3-18.8,10.2-18.9,10.1-18.9"/>
			<path clip-path="url(#SVGID_2_)" fill="#231F20" d="M12.1-23.6c-0.1,0-0.2,0-0.3,0.1c-0.1,0.1-0.1,0.2-0.1,0.3
				c0,0.1,0,0.2,0.1,0.3c0.1,0.1,0.3,0.1,0.5,0c0.1-0.1,0.1-0.2,0.1-0.3c0-0.1,0-0.2-0.1-0.3C12.3-23.6,12.2-23.6,12.1-23.6"/>
			<path clip-path="url(#SVGID_2_)" fill="#231F20" d="M3.4-25.9c-0.1,0-0.2,0-0.3,0.1C3-25.7,3-25.6,3-25.5c0,0.1,0,0.2,0.1,0.3
				c0.1,0.1,0.4,0.1,0.5,0c0.1-0.1,0.1-0.2,0.1-0.3c0-0.1,0-0.2-0.1-0.3C3.5-25.8,3.4-25.9,3.4-25.9"/>
			<path clip-path="url(#SVGID_2_)" fill="#231F20" d="M64.6-29.6c-0.1,0-0.2,0-0.2,0.1c-0.1,0.1-0.1,0.2-0.1,0.3
				c0,0.1,0,0.2,0.1,0.3c0.1,0.1,0.4,0.1,0.5,0c0.1-0.1,0.1-0.2,0.1-0.3c0-0.1,0-0.2-0.1-0.3C64.8-29.6,64.7-29.6,64.6-29.6"/>
			<path clip-path="url(#SVGID_2_)" fill="#231F20" d="M69.9-29.9c-0.1,0-0.2,0-0.3,0.1c-0.1,0.1-0.1,0.2-0.1,0.3
				c0,0.1,0,0.2,0.1,0.3c0.1,0.1,0.3,0.1,0.5,0c0.1-0.1,0.1-0.2,0.1-0.3c0-0.1,0-0.2-0.1-0.3C70-29.8,70-29.9,69.9-29.9"/>
			<path clip-path="url(#SVGID_2_)" fill="#231F20" d="M1.9-9.1c-0.1,0-0.2,0-0.3,0.1C1.5-8.9,1.5-8.8,1.5-8.8c0,0.1,0,0.2,0.1,0.3
				c0.1,0.1,0.4,0.1,0.5,0c0.1-0.1,0.1-0.2,0.1-0.3c0-0.1,0-0.2-0.1-0.3C2-9.1,1.9-9.1,1.9-9.1"/>
			<path clip-path="url(#SVGID_2_)" fill="#231F20" d="M16.9-6.1c-0.1,0-0.2,0-0.3,0.1c-0.1,0.1-0.1,0.2-0.1,0.3
				c0,0.1,0,0.2,0.1,0.3c0.1,0.1,0.4,0.1,0.5,0c0.1-0.1,0.1-0.2,0.1-0.3c0-0.1,0-0.2-0.1-0.3C17-6.1,16.9-6.1,16.9-6.1"/>
			<path clip-path="url(#SVGID_2_)" fill="#231F20" d="M4.1-6.1C4-6.1,3.9-6.1,3.9-6C3.8-5.9,3.8-5.8,3.8-5.8c0,0.1,0,0.2,0.1,0.3
				c0.1,0.1,0.4,0.1,0.5,0c0.1-0.1,0.1-0.2,0.1-0.3c0-0.1,0-0.2-0.1-0.3C4.3-6.1,4.2-6.1,4.1-6.1"/>
			<path clip-path="url(#SVGID_2_)" fill="#231F20" d="M13.1-14.4c-0.1,0-0.2,0-0.3,0.1c-0.1,0.1-0.1,0.2-0.1,0.3
				c0,0.1,0,0.2,0.1,0.3c0.1,0.1,0.4,0.1,0.5,0c0.1-0.1,0.1-0.2,0.1-0.3c0-0.1,0-0.2-0.1-0.3C13.3-14.3,13.2-14.4,13.1-14.4"/>
			<path clip-path="url(#SVGID_2_)" fill="#231F20" d="M18.9-19.4c-0.1,0-0.2,0-0.3,0.1c-0.1,0.1-0.1,0.2-0.1,0.3
				c0,0.1,0,0.2,0.1,0.3c0.1,0.1,0.4,0.1,0.5,0c0.1-0.1,0.1-0.2,0.1-0.3c0-0.1,0-0.2-0.1-0.3C19-19.3,18.9-19.4,18.9-19.4"/>
			<path clip-path="url(#SVGID_2_)" fill="#231F20" d="M21.6-37.1c-0.1,0-0.2,0-0.3,0.1c-0.1,0.1-0.1,0.2-0.1,0.3
				c0,0.1,0,0.2,0.1,0.3c0.1,0.1,0.4,0.1,0.5,0c0.1-0.1,0.1-0.2,0.1-0.3c0-0.1,0-0.2-0.1-0.3C21.8-37.1,21.7-37.1,21.6-37.1"/>
			<path clip-path="url(#SVGID_2_)" fill="#231F20" d="M1.1-44.4c-0.1,0-0.2,0-0.3,0.1c-0.1,0.1-0.1,0.2-0.1,0.3
				c0,0.1,0,0.2,0.1,0.3c0.1,0.1,0.3,0.1,0.5,0c0.1-0.1,0.1-0.2,0.1-0.3c0-0.1,0-0.2-0.1-0.3C1.3-44.3,1.2-44.4,1.1-44.4"/>
			<path clip-path="url(#SVGID_2_)" fill="#231F20" d="M68.4-66.1c-0.1,0-0.2,0-0.3,0.1C68-65.9,68-65.8,68-65.8
				c0,0.1,0,0.2,0.1,0.3c0.1,0.1,0.3,0.1,0.5,0c0.1-0.1,0.1-0.2,0.1-0.3c0-0.1,0-0.2-0.1-0.3C68.5-66.1,68.4-66.1,68.4-66.1"/>
			<path clip-path="url(#SVGID_2_)" fill="#231F20" d="M60.1-69.9c-0.1,0-0.2,0-0.3,0.1c-0.1,0.1-0.1,0.2-0.1,0.3
				c0,0.1,0,0.2,0.1,0.3c0.1,0.1,0.4,0.1,0.5,0c0.1-0.1,0.1-0.2,0.1-0.3c0-0.1,0-0.2-0.1-0.3C60.3-69.8,60.2-69.9,60.1-69.9"/>
			<path clip-path="url(#SVGID_2_)" fill="#231F20" d="M40.9-68.1c-0.1,0-0.2,0-0.3,0.1c-0.1,0.1-0.1,0.2-0.1,0.3
				c0,0.1,0,0.2,0.1,0.3c0.1,0.1,0.4,0.1,0.5,0c0.1-0.1,0.1-0.2,0.1-0.3c0-0.1,0-0.2-0.1-0.3C41-68.1,41-68.1,40.9-68.1"/>
			<path clip-path="url(#SVGID_2_)" fill="#231F20" d="M4.9-60.1c-0.1,0-0.2,0-0.3,0.1c-0.1,0.1-0.1,0.2-0.1,0.3
				c0,0.1,0,0.2,0.1,0.3c0.1,0.1,0.4,0.1,0.5,0c0.1-0.1,0.1-0.2,0.1-0.3c0-0.1,0-0.2-0.1-0.3C5-60.1,4.9-60.1,4.9-60.1"/>
			<path clip-path="url(#SVGID_2_)" fill="#231F20" d="M26.9-59.6c-0.1,0-0.2,0-0.3,0.1c-0.1,0.1-0.1,0.2-0.1,0.3
				c0,0.1,0,0.2,0.1,0.3c0.1,0.1,0.4,0.1,0.5,0c0.1-0.1,0.1-0.2,0.1-0.3c0-0.1,0-0.2-0.1-0.3C27-59.6,26.9-59.6,26.9-59.6"/>
			<path clip-path="url(#SVGID_2_)" fill="#231F20" d="M37.6-48.6c-0.1,0-0.2,0-0.3,0.1c-0.1,0.1-0.1,0.2-0.1,0.3
				c0,0.1,0,0.2,0.1,0.3c0.1,0.1,0.4,0.1,0.5,0c0.1-0.1,0.1-0.2,0.1-0.3c0-0.1,0-0.2-0.1-0.3C37.8-48.6,37.7-48.6,37.6-48.6"/>
			<path clip-path="url(#SVGID_2_)" fill="#231F20" d="M9.1-40.4c-0.1,0-0.2,0-0.3,0.1c-0.1,0.1-0.1,0.2-0.1,0.3
				c0,0.1,0,0.2,0.1,0.3c0.1,0.1,0.4,0.1,0.5,0c0.1-0.1,0.1-0.2,0.1-0.3c0-0.1,0-0.2-0.1-0.3C9.3-40.3,9.2-40.4,9.1-40.4"/>
			<path clip-path="url(#SVGID_2_)" fill="#231F20" d="M52.6-38.1c-0.1,0-0.2,0-0.3,0.1c-0.1,0.1-0.1,0.2-0.1,0.2
				c0,0.1,0,0.2,0.1,0.3c0.1,0.1,0.3,0.1,0.5,0c0.1-0.1,0.1-0.2,0.1-0.3c0-0.1,0-0.2-0.1-0.3C52.8-38.1,52.7-38.1,52.6-38.1"/>
			<path clip-path="url(#SVGID_2_)" fill="#231F20" d="M61.1-46.1c-0.1,0-0.2,0-0.3,0.1c-0.1,0.1-0.1,0.2-0.1,0.3
				c0,0.1,0,0.2,0.1,0.3c0.1,0.1,0.3,0.1,0.5,0c0.1-0.1,0.1-0.2,0.1-0.3c0-0.1,0-0.2-0.1-0.3C61.3-46.1,61.2-46.1,61.1-46.1"/>
			<path clip-path="url(#SVGID_2_)" fill="#231F20" d="M51.6-66.4c-0.1,0-0.2,0-0.3,0.1c-0.1,0.1-0.1,0.2-0.1,0.3
				c0,0.1,0,0.2,0.1,0.3c0.1,0.1,0.4,0.1,0.5,0c0.1-0.1,0.1-0.2,0.1-0.3c0-0.1,0-0.2-0.1-0.3C51.8-66.3,51.7-66.4,51.6-66.4"/>
			<path clip-path="url(#SVGID_2_)" fill="#231F20" d="M40.4-37.9c-0.1,0-0.2,0-0.3,0.1C40-37.7,40-37.6,40-37.5
				c0,0.1,0,0.2,0.1,0.3c0.1,0.1,0.4,0.1,0.5,0c0.1-0.1,0.1-0.2,0.1-0.3c0-0.1,0-0.2-0.1-0.3C40.5-37.8,40.4-37.9,40.4-37.9"/>
			<path clip-path="url(#SVGID_2_)" fill="#231F20" d="M27.9-13.6c-0.1,0-0.2,0-0.3,0.1c-0.1,0.1-0.1,0.2-0.1,0.3
				c0,0.1,0,0.2,0.1,0.3c0.1,0.1,0.4,0.1,0.5,0c0.1-0.1,0.1-0.2,0.1-0.3c0-0.1,0-0.2-0.1-0.3C28-13.6,27.9-13.6,27.9-13.6"/>
			<path clip-path="url(#SVGID_2_)" fill="#231F20" d="M20.1-26.6c-0.1,0-0.2,0-0.3,0.1c-0.1,0.1-0.1,0.2-0.1,0.3
				c0,0.1,0,0.2,0.1,0.3c0.1,0.1,0.4,0.1,0.5,0c0.1-0.1,0.1-0.2,0.1-0.3c0-0.1,0-0.2-0.1-0.3C20.3-26.6,20.2-26.6,20.1-26.6"/>
			<path clip-path="url(#SVGID_2_)" fill="#231F20" d="M12.1-1.9c-0.1,0-0.2,0-0.3,0.1c-0.1,0.1-0.1,0.2-0.1,0.3
				c0,0.1,0,0.2,0.1,0.3c0.1,0.1,0.4,0.1,0.5,0c0.1-0.1,0.1-0.2,0.1-0.3c0-0.1,0-0.2-0.1-0.3C12.3-1.8,12.2-1.9,12.1-1.9"/>
			<path clip-path="url(#SVGID_2_)" fill="#231F20" d="M55.6-3.9c-0.1,0-0.2,0-0.3,0.1c-0.1,0.1-0.1,0.2-0.1,0.3
				c0,0.1,0,0.2,0.1,0.3c0.1,0.1,0.3,0.1,0.5,0C55.9-3.3,56-3.4,56-3.5c0-0.1,0-0.2-0.1-0.3C55.8-3.8,55.7-3.9,55.6-3.9"/>
			<path clip-path="url(#SVGID_2_)" fill="#231F20" d="M47.6-69.9c-0.1,0-0.2,0-0.3,0.1c-0.1,0.1-0.1,0.2-0.1,0.3
				c0,0.1,0,0.2,0.1,0.3c0.1,0.1,0.4,0.1,0.5,0c0.1-0.1,0.1-0.2,0.1-0.3c0-0.1,0-0.2-0.1-0.3C47.8-69.8,47.7-69.9,47.6-69.9"/>
			<path clip-path="url(#SVGID_2_)" fill="#231F20" d="M5.1-40.4c-0.1,0-0.2,0-0.3,0.1c-0.1,0.1-0.1,0.2-0.1,0.3
				c0,0.1,0,0.2,0.1,0.3c0.1,0.1,0.3,0.1,0.5,0c0.1-0.1,0.1-0.2,0.1-0.3c0-0.1,0-0.2-0.1-0.3C5.3-40.3,5.2-40.4,5.1-40.4"/>
			<path clip-path="url(#SVGID_2_)" fill="#231F20" d="M69.1-13.4c-0.1,0-0.2,0-0.3,0.1c-0.1,0.1-0.1,0.2-0.1,0.3
				c0,0.1,0,0.2,0.1,0.3c0.1,0.1,0.4,0.1,0.5,0c0.1-0.1,0.1-0.2,0.1-0.3c0-0.1,0-0.2-0.1-0.3C69.3-13.3,69.2-13.4,69.1-13.4"/>
			<path clip-path="url(#SVGID_2_)" fill="#231F20" d="M23.6-14.1c-0.1,0-0.2,0-0.3,0.1c-0.1,0.1-0.1,0.2-0.1,0.3
				c0,0.1,0,0.2,0.1,0.3c0.1,0.1,0.4,0.1,0.5,0c0.1-0.1,0.1-0.2,0.1-0.3c0-0.1,0-0.2-0.1-0.3C23.8-14.1,23.7-14.1,23.6-14.1"/>
			<path clip-path="url(#SVGID_2_)" fill="#231F20" d="M20.9-17.4c-0.1,0-0.2,0-0.3,0.1c-0.1,0.1-0.1,0.2-0.1,0.3
				c0,0.1,0,0.2,0.1,0.3c0.1,0.1,0.4,0.1,0.5,0c0.1-0.1,0.1-0.2,0.1-0.3c0-0.1,0-0.2-0.1-0.3C21-17.3,20.9-17.4,20.9-17.4"/>
			<path clip-path="url(#SVGID_2_)" fill="#231F20" d="M15.1-17.4c-0.1,0-0.2,0-0.3,0.1c-0.1,0.1-0.1,0.2-0.1,0.3
				c0,0.1,0,0.2,0.1,0.3c0.1,0.1,0.3,0.1,0.5,0c0.1-0.1,0.1-0.2,0.1-0.3c0-0.1,0-0.2-0.1-0.3C15.3-17.3,15.2-17.4,15.1-17.4"/>
			<path clip-path="url(#SVGID_2_)" fill="#231F20" d="M6.4-11.9c-0.1,0-0.2,0-0.3,0.1C6-11.7,6-11.6,6-11.5c0,0.1,0,0.2,0.1,0.3
				c0.1,0.1,0.4,0.1,0.5,0c0.1-0.1,0.1-0.2,0.1-0.3c0-0.1,0-0.2-0.1-0.3C6.5-11.8,6.4-11.9,6.4-11.9"/>
			<path clip-path="url(#SVGID_2_)" fill="#231F20" d="M7.4-2.9c-0.1,0-0.2,0-0.2,0.1C7-2.7,7-2.6,7-2.5c0,0.1,0,0.2,0.1,0.3
				c0.1,0.1,0.4,0.1,0.5,0c0.1-0.1,0.1-0.2,0.1-0.3c0-0.1,0-0.2-0.1-0.3C7.5-2.8,7.4-2.9,7.4-2.9"/>
			<path clip-path="url(#SVGID_2_)" fill="#231F20" d="M10.4-8.4c-0.1,0-0.2,0-0.3,0.1C10-8.2,10-8.1,10-8c0,0.1,0,0.2,0.1,0.3
				c0.1,0.1,0.4,0.1,0.5,0c0.1-0.1,0.1-0.2,0.1-0.3c0-0.1,0-0.2-0.1-0.3C10.5-8.3,10.4-8.4,10.4-8.4"/>
			<path clip-path="url(#SVGID_2_)" fill="#231F20" d="M14.6-8.4c-0.1,0-0.2,0-0.3,0.1c-0.1,0.1-0.1,0.2-0.1,0.3
				c0,0.1,0,0.2,0.1,0.3c0.1,0.1,0.3,0.1,0.5,0C14.9-7.8,15-7.9,15-8c0-0.1,0-0.2-0.1-0.3C14.8-8.3,14.7-8.4,14.6-8.4"/>
			<path clip-path="url(#SVGID_2_)" fill="#231F20" d="M26.1-7.1c-0.1,0-0.2,0-0.3,0.1c-0.1,0.1-0.1,0.2-0.1,0.3
				c0,0.1,0,0.2,0.1,0.3c0.1,0.1,0.4,0.1,0.5,0c0.1-0.1,0.1-0.2,0.1-0.3c0-0.1,0-0.2-0.1-0.3C26.3-7.1,26.2-7.1,26.1-7.1"/>
			<path clip-path="url(#SVGID_2_)" fill="#231F20" d="M37.4-7.6c-0.1,0-0.2,0-0.3,0.1C37-7.4,37-7.3,37-7.3c0,0.1,0,0.2,0.1,0.3
				c0.1,0.1,0.4,0.1,0.5,0c0.1-0.1,0.1-0.2,0.1-0.3c0-0.1,0-0.2-0.1-0.3C37.5-7.6,37.4-7.6,37.4-7.6"/>
			<path clip-path="url(#SVGID_2_)" fill="#231F20" d="M37.9-4.4c-0.1,0-0.2,0-0.3,0.1c-0.1,0.1-0.1,0.2-0.1,0.3
				c0,0.1,0,0.2,0.1,0.3c0.1,0.1,0.4,0.1,0.5,0c0.1-0.1,0.1-0.2,0.1-0.3c0-0.1,0-0.2-0.1-0.3C38-4.3,37.9-4.4,37.9-4.4"/>
			<path clip-path="url(#SVGID_2_)" fill="#231F20" d="M43.6-2.4c-0.1,0-0.2,0-0.3,0.1c-0.1,0.1-0.1,0.2-0.1,0.3
				c0,0.1,0,0.2,0.1,0.3c0.1,0.1,0.4,0.1,0.5,0C43.9-1.8,44-1.9,44-2c0-0.1,0-0.2-0.1-0.3C43.8-2.3,43.7-2.4,43.6-2.4"/>
			<path clip-path="url(#SVGID_2_)" fill="#231F20" d="M49.9-8.4c-0.1,0-0.2,0-0.3,0.1c-0.1,0.1-0.1,0.2-0.1,0.3
				c0,0.1,0,0.2,0.1,0.3c0.1,0.1,0.4,0.1,0.5,0c0.1-0.1,0.1-0.2,0.1-0.3c0-0.1,0-0.2-0.1-0.3C50-8.3,49.9-8.4,49.9-8.4"/>
			<path clip-path="url(#SVGID_2_)" fill="#231F20" d="M46.4-9.4c-0.1,0-0.2,0-0.3,0.1C46-9.2,46-9.1,46-9c0,0.1,0,0.2,0.1,0.3
				c0.1,0.1,0.4,0.1,0.5,0c0.1-0.1,0.1-0.2,0.1-0.3c0-0.1,0-0.2-0.1-0.3C46.5-9.3,46.5-9.4,46.4-9.4"/>
			<path clip-path="url(#SVGID_2_)" fill="#231F20" d="M36.1-11.1c-0.1,0-0.2,0-0.3,0.1c-0.1,0.1-0.1,0.2-0.1,0.3
				c0,0.1,0,0.2,0.1,0.3c0.1,0.1,0.4,0.1,0.5,0c0.1-0.1,0.1-0.2,0.1-0.3c0-0.1,0-0.2-0.1-0.3C36.3-11.1,36.2-11.1,36.1-11.1"/>
			<path clip-path="url(#SVGID_2_)" fill="#231F20" d="M39.6-15.1c-0.1,0-0.2,0-0.3,0.1c-0.1,0.1-0.1,0.2-0.1,0.3
				c0,0.1,0,0.2,0.1,0.3c0.1,0.1,0.4,0.1,0.5,0c0.1-0.1,0.1-0.2,0.1-0.3c0-0.1,0-0.2-0.1-0.3C39.8-15.1,39.7-15.1,39.6-15.1"/>
			<path clip-path="url(#SVGID_2_)" fill="#231F20" d="M25.1-18.1c-0.1,0-0.2,0-0.3,0.1c-0.1,0.1-0.1,0.2-0.1,0.3
				c0,0.1,0,0.2,0.1,0.3c0.1,0.1,0.4,0.1,0.5,0c0.1-0.1,0.1-0.2,0.1-0.3c0-0.1,0-0.2-0.1-0.3C25.3-18.1,25.2-18.1,25.1-18.1"/>
			<path clip-path="url(#SVGID_2_)" fill="#231F20" d="M8.6-27.4c-0.1,0-0.2,0-0.3,0.1c-0.1,0.1-0.1,0.2-0.1,0.3
				c0,0.1,0,0.2,0.1,0.3c0.1,0.1,0.4,0.1,0.5,0C8.9-26.8,9-26.9,9-27c0-0.1,0-0.2-0.1-0.3C8.8-27.3,8.7-27.4,8.6-27.4"/>
			<path clip-path="url(#SVGID_2_)" fill="#231F20" d="M16.4-31.9c-0.1,0-0.2,0-0.3,0.1C16-31.7,16-31.6,16-31.5
				c0,0.1,0,0.2,0.1,0.3c0.1,0.1,0.4,0.1,0.5,0c0.1-0.1,0.1-0.2,0.1-0.3c0-0.1,0-0.2-0.1-0.3C16.5-31.8,16.4-31.9,16.4-31.9"/>
			<path clip-path="url(#SVGID_2_)" fill="#231F20" d="M10.9-33.6c-0.1,0-0.2,0-0.3,0.1c-0.1,0.1-0.1,0.2-0.1,0.3
				c0,0.1,0,0.2,0.1,0.3c0.1,0.1,0.3,0.1,0.5,0c0.1-0.1,0.1-0.2,0.1-0.3c0-0.1,0-0.2-0.1-0.3C11-33.6,10.9-33.6,10.9-33.6"/>
			<path clip-path="url(#SVGID_2_)" fill="#231F20" d="M5.6-37.1c-0.1,0-0.2,0-0.3,0.1c-0.1,0.1-0.1,0.2-0.1,0.3
				c0,0.1,0,0.2,0.1,0.3c0.1,0.1,0.4,0.1,0.5,0C5.9-36.6,6-36.7,6-36.8c0-0.1,0-0.2-0.1-0.3C5.8-37.1,5.7-37.1,5.6-37.1"/>
			<path clip-path="url(#SVGID_2_)" fill="#231F20" d="M3.6-20.6c-0.1,0-0.2,0-0.3,0.1c-0.1,0.1-0.1,0.2-0.1,0.3
				c0,0.1,0,0.2,0.1,0.3c0.1,0.1,0.4,0.1,0.5,0C3.9-20.1,4-20.2,4-20.3c0-0.1,0-0.2-0.1-0.3C3.8-20.6,3.7-20.6,3.6-20.6"/>
			<path clip-path="url(#SVGID_2_)" fill="#231F20" d="M20.9-30.9c-0.1,0-0.2,0-0.3,0.1c-0.1,0.1-0.1,0.2-0.1,0.3
				c0,0.1,0,0.2,0.1,0.3c0.1,0.1,0.3,0.1,0.5,0c0.1-0.1,0.1-0.2,0.1-0.3c0-0.1,0-0.2-0.1-0.3C21-30.8,20.9-30.9,20.9-30.9"/>
			<path clip-path="url(#SVGID_2_)" fill="#231F20" d="M17.9-35.6c-0.1,0-0.2,0-0.3,0.1c-0.1,0.1-0.1,0.2-0.1,0.3
				c0,0.1,0,0.2,0.1,0.3c0.1,0.1,0.4,0.1,0.5,0c0.1-0.1,0.1-0.2,0.1-0.3c0-0.1,0-0.2-0.1-0.3C18-35.6,17.9-35.6,17.9-35.6"/>
			<path clip-path="url(#SVGID_2_)" fill="#231F20" d="M16.4-39.1c-0.1,0-0.2,0-0.3,0.1C16-38.9,16-38.8,16-38.8
				c0,0.1,0,0.2,0.1,0.3c0.1,0.1,0.3,0.1,0.5,0c0.1-0.1,0.1-0.2,0.1-0.3c0-0.1,0-0.2-0.1-0.3C16.5-39.1,16.5-39.1,16.4-39.1"/>
			<path clip-path="url(#SVGID_2_)" fill="#231F20" d="M13.1-41.4c-0.1,0-0.2,0-0.3,0.1c-0.1,0.1-0.1,0.2-0.1,0.3
				c0,0.1,0,0.2,0.1,0.3c0.1,0.1,0.3,0.1,0.5,0c0.1-0.1,0.1-0.2,0.1-0.3c0-0.1,0-0.2-0.1-0.3C13.3-41.3,13.2-41.4,13.1-41.4"/>
			<path clip-path="url(#SVGID_2_)" fill="#231F20" d="M13.1-46.6c-0.1,0-0.2,0-0.3,0.1c-0.1,0.1-0.1,0.2-0.1,0.3
				c0,0.1,0,0.2,0.1,0.3c0.1,0.1,0.3,0.1,0.5,0c0.1-0.1,0.1-0.2,0.1-0.3c0-0.1,0-0.2-0.1-0.3C13.3-46.6,13.2-46.6,13.1-46.6"/>
			<path clip-path="url(#SVGID_2_)" fill="#231F20" d="M6.1-48.6c-0.1,0-0.2,0-0.3,0.1c-0.1,0.1-0.1,0.2-0.1,0.3
				c0,0.1,0,0.2,0.1,0.3c0.1,0.1,0.4,0.1,0.5,0c0.1-0.1,0.1-0.2,0.1-0.3c0-0.1,0-0.2-0.1-0.3C6.3-48.6,6.2-48.6,6.1-48.6"/>
			<path clip-path="url(#SVGID_2_)" fill="#231F20" d="M11.4-54.6c-0.1,0-0.2,0-0.3,0.1C11-54.4,11-54.3,11-54.3
				c0,0.1,0,0.2,0.1,0.3c0.1,0.1,0.4,0.1,0.5,0c0.1-0.1,0.1-0.2,0.1-0.3c0-0.1,0-0.2-0.1-0.3C11.5-54.6,11.4-54.6,11.4-54.6"/>
			<path clip-path="url(#SVGID_2_)" fill="#231F20" d="M15.9-58.6c-0.1,0-0.2,0-0.3,0.1c-0.1,0.1-0.1,0.2-0.1,0.3
				c0,0.1,0,0.2,0.1,0.3c0.1,0.1,0.4,0.1,0.5,0c0.1-0.1,0.1-0.2,0.1-0.3c0-0.1,0-0.2-0.1-0.3C16-58.6,15.9-58.6,15.9-58.6"/>
			<path clip-path="url(#SVGID_2_)" fill="#231F20" d="M6.4-63.6c-0.1,0-0.2,0-0.3,0.1C6-63.4,6-63.3,6-63.3c0,0.1,0,0.2,0.1,0.3
				c0.1,0.1,0.4,0.1,0.5,0c0.1-0.1,0.1-0.2,0.1-0.3c0-0.1,0-0.2-0.1-0.3C6.5-63.6,6.4-63.6,6.4-63.6"/>
			<path clip-path="url(#SVGID_2_)" fill="#231F20" d="M2.6-62.1c-0.1,0-0.2,0-0.3,0.1c-0.1,0.1-0.1,0.2-0.1,0.3
				c0,0.1,0,0.2,0.1,0.3c0.1,0.1,0.4,0.1,0.5,0C2.9-61.6,3-61.7,3-61.8c0-0.1,0-0.2-0.1-0.3C2.8-62.1,2.7-62.1,2.6-62.1"/>
			<path clip-path="url(#SVGID_2_)" fill="#231F20" d="M9.4-68.1c-0.1,0-0.2,0-0.3,0.1C9-67.9,9-67.8,9-67.8c0,0.1,0,0.2,0.1,0.3
				c0.1,0.1,0.4,0.1,0.5,0c0.1-0.1,0.1-0.2,0.1-0.3c0-0.1,0-0.2-0.1-0.3C9.5-68.1,9.5-68.1,9.4-68.1"/>
			<path clip-path="url(#SVGID_2_)" fill="#231F20" d="M13.9-69.6c-0.1,0-0.2,0-0.3,0.1c-0.1,0.1-0.1,0.2-0.1,0.3
				c0,0.1,0,0.2,0.1,0.3c0.1,0.1,0.4,0.1,0.5,0c0.1-0.1,0.1-0.2,0.1-0.3c0-0.1,0-0.2-0.1-0.3C14-69.6,13.9-69.6,13.9-69.6"/>
			<path clip-path="url(#SVGID_2_)" fill="#231F20" d="M21.9-68.6c-0.1,0-0.2,0-0.3,0.1c-0.1,0.1-0.1,0.2-0.1,0.3
				c0,0.1,0,0.2,0.1,0.3c0.1,0.1,0.4,0.1,0.5,0c0.1-0.1,0.1-0.2,0.1-0.3c0-0.1,0-0.2-0.1-0.3C22-68.6,21.9-68.6,21.9-68.6"/>
			<path clip-path="url(#SVGID_2_)" fill="#231F20" d="M23.4-65.9c-0.1,0-0.2,0-0.3,0.1C23-65.7,23-65.6,23-65.5
				c0,0.1,0,0.2,0.1,0.3c0.1,0.1,0.4,0.1,0.5,0c0.1-0.1,0.1-0.2,0.1-0.3c0-0.1,0-0.2-0.1-0.3C23.5-65.8,23.5-65.9,23.4-65.9"/>
			<path clip-path="url(#SVGID_2_)" fill="#231F20" d="M22.6-60.1c-0.1,0-0.2,0-0.3,0.1c-0.1,0.1-0.1,0.2-0.1,0.3
				c0,0.1,0,0.2,0.1,0.3c0.1,0.1,0.4,0.1,0.5,0c0.1-0.1,0.1-0.2,0.1-0.3c0-0.1,0-0.2-0.1-0.3C22.8-60.1,22.7-60.1,22.6-60.1"/>
			<path clip-path="url(#SVGID_2_)" fill="#231F20" d="M24.6-57.6c-0.1,0-0.2,0-0.3,0.1c-0.1,0.1-0.1,0.2-0.1,0.3
				c0,0.1,0,0.2,0.1,0.3c0.1,0.1,0.4,0.1,0.5,0c0.1-0.1,0.1-0.2,0.1-0.3c0-0.1,0-0.2-0.1-0.3C24.8-57.6,24.7-57.6,24.6-57.6"/>
			<path clip-path="url(#SVGID_2_)" fill="#231F20" d="M26.6-47.9c-0.1,0-0.2,0-0.3,0.1c-0.1,0.1-0.1,0.2-0.1,0.3
				c0,0.1,0,0.2,0.1,0.3c0.1,0.1,0.4,0.1,0.5,0c0.1-0.1,0.1-0.2,0.1-0.3c0-0.1,0-0.2-0.1-0.3C26.8-47.8,26.7-47.9,26.6-47.9"/>
			<path clip-path="url(#SVGID_2_)" fill="#231F20" d="M26.1-43.6c-0.1,0-0.2,0-0.3,0.1c-0.1,0.1-0.1,0.2-0.1,0.3
				c0,0.1,0,0.2,0.1,0.3c0.1,0.1,0.4,0.1,0.5,0c0.1-0.1,0.1-0.2,0.1-0.3c0-0.1,0-0.2-0.1-0.3C26.3-43.6,26.2-43.6,26.1-43.6"/>
			<path clip-path="url(#SVGID_2_)" fill="#231F20" d="M32.6-31.1c-0.1,0-0.2,0-0.3,0.1c-0.1,0.1-0.1,0.2-0.1,0.3
				c0,0.1,0,0.2,0.1,0.3c0.1,0.1,0.3,0.1,0.5,0c0.1-0.1,0.1-0.2,0.1-0.3c0-0.1,0-0.2-0.1-0.3C32.8-31.1,32.7-31.1,32.6-31.1"/>
			<path clip-path="url(#SVGID_2_)" fill="#231F20" d="M34.6-27.9c-0.1,0-0.2,0-0.3,0.1c-0.1,0.1-0.1,0.2-0.1,0.3
				c0,0.1,0,0.2,0.1,0.3c0.1,0.1,0.4,0.1,0.5,0c0.1-0.1,0.1-0.2,0.1-0.3c0-0.1,0-0.2-0.1-0.3C34.8-27.8,34.7-27.9,34.6-27.9"/>
			<path clip-path="url(#SVGID_2_)" fill="#231F20" d="M42.1-25.9c-0.1,0-0.2,0-0.3,0.1c-0.1,0.1-0.1,0.2-0.1,0.3
				c0,0.1,0,0.2,0.1,0.3c0.1,0.1,0.4,0.1,0.5,0c0.1-0.1,0.1-0.2,0.1-0.3c0-0.1,0-0.2-0.1-0.3C42.3-25.8,42.2-25.9,42.1-25.9"/>
			<path clip-path="url(#SVGID_2_)" fill="#231F20" d="M43.4-20.9c-0.1,0-0.2,0-0.3,0.1C43-20.7,43-20.6,43-20.5
				c0,0.1,0,0.2,0.1,0.3c0.1,0.1,0.4,0.1,0.5,0c0.1-0.1,0.1-0.2,0.1-0.3c0-0.1,0-0.2-0.1-0.3C43.5-20.8,43.4-20.9,43.4-20.9"/>
			<path clip-path="url(#SVGID_2_)" fill="#231F20" d="M36.9-19.4c-0.1,0-0.2,0-0.3,0.1c-0.1,0.1-0.1,0.2-0.1,0.3
				c0,0.1,0,0.2,0.1,0.2c0.2,0.2,0.4,0.1,0.5,0c0.1-0.1,0.1-0.2,0.1-0.3c0-0.1,0-0.2-0.1-0.3C37-19.3,36.9-19.4,36.9-19.4"/>
			<path clip-path="url(#SVGID_2_)" fill="#231F20" d="M28.1-22.4c-0.1,0-0.2,0-0.3,0.1c-0.1,0.1-0.1,0.2-0.1,0.3
				c0,0.1,0,0.2,0.1,0.3c0.1,0.1,0.4,0.1,0.5,0c0.1-0.1,0.1-0.2,0.1-0.3c0-0.1,0-0.2-0.1-0.3C28.3-22.3,28.2-22.4,28.1-22.4"/>
			<path clip-path="url(#SVGID_2_)" fill="#231F20" d="M52.4-22.1c-0.1,0-0.2,0-0.3,0.1C52-21.9,52-21.8,52-21.8
				c0,0.1,0,0.2,0.1,0.3c0.1,0.1,0.4,0.1,0.5,0c0.1-0.1,0.1-0.2,0.1-0.3c0-0.1,0-0.2-0.1-0.3C52.5-22.1,52.5-22.1,52.4-22.1"/>
			<path clip-path="url(#SVGID_2_)" fill="#231F20" d="M43.6-17.9c-0.1,0-0.2,0-0.3,0.1c-0.1,0.1-0.1,0.2-0.1,0.3
				c0,0.1,0,0.2,0.1,0.3c0.1,0.1,0.4,0.1,0.5,0c0.1-0.1,0.1-0.2,0.1-0.3c0-0.1,0-0.2-0.1-0.3C43.8-17.8,43.7-17.9,43.6-17.9"/>
			<path clip-path="url(#SVGID_2_)" fill="#231F20" d="M50.9-18.1c-0.1,0-0.2,0-0.3,0.1c-0.1,0.1-0.1,0.2-0.1,0.3
				c0,0.1,0,0.2,0.1,0.3c0.1,0.1,0.4,0.1,0.5,0c0.1-0.1,0.1-0.2,0.1-0.3c0-0.1,0-0.2-0.1-0.3C51-18.1,50.9-18.1,50.9-18.1"/>
			<path clip-path="url(#SVGID_2_)" fill="#231F20" d="M59.9-17.4c-0.1,0-0.2,0-0.3,0.1c-0.1,0.1-0.1,0.2-0.1,0.3
				c0,0.1,0,0.2,0.1,0.3c0.1,0.1,0.3,0.1,0.5,0c0.1-0.1,0.1-0.2,0.1-0.3c0-0.1,0-0.2-0.1-0.3C60-17.3,59.9-17.4,59.9-17.4"/>
			<path clip-path="url(#SVGID_2_)" fill="#231F20" d="M58.6-14.1c-0.1,0-0.2,0-0.3,0.1c-0.1,0.1-0.1,0.2-0.1,0.3
				c0,0.1,0,0.2,0.1,0.3c0.1,0.1,0.4,0.1,0.5,0c0.1-0.1,0.1-0.2,0.1-0.3c0-0.1,0-0.2-0.1-0.3C58.8-14.1,58.7-14.1,58.6-14.1"/>
			<path clip-path="url(#SVGID_2_)" fill="#231F20" d="M61.9-11.1c-0.1,0-0.2,0-0.3,0.1c-0.1,0.1-0.1,0.2-0.1,0.3
				c0,0.1,0,0.2,0.1,0.3c0.1,0.1,0.4,0.1,0.5,0c0.1-0.1,0.1-0.1,0.1-0.2c0-0.1,0-0.2-0.1-0.3C62-11.1,61.9-11.1,61.9-11.1"/>
			<path clip-path="url(#SVGID_2_)" fill="#231F20" d="M59.1-7.6c-0.1,0-0.2,0-0.3,0.1c-0.1,0.1-0.1,0.2-0.1,0.3
				c0,0.1,0,0.2,0.1,0.2c0.1,0.2,0.4,0.1,0.5,0c0.1-0.1,0.1-0.2,0.1-0.3c0-0.1,0-0.2-0.1-0.3C59.3-7.6,59.2-7.6,59.1-7.6"/>
			<path clip-path="url(#SVGID_2_)" fill="#231F20" d="M60.4-4.9c-0.1,0-0.2,0-0.3,0.1C60-4.7,60-4.6,60-4.5c0,0.1,0,0.2,0.1,0.3
				c0.1,0.1,0.3,0.1,0.5,0c0.1-0.1,0.1-0.2,0.1-0.3c0-0.1,0-0.2-0.1-0.3C60.5-4.8,60.4-4.9,60.4-4.9"/>
			<path clip-path="url(#SVGID_2_)" fill="#231F20" d="M67.9-6.1c-0.1,0-0.2,0-0.3,0.1c-0.1,0.1-0.1,0.2-0.1,0.3
				c0,0.1,0,0.2,0.1,0.3c0.1,0.1,0.4,0.1,0.5,0c0.1-0.1,0.1-0.2,0.1-0.3c0-0.1,0-0.2-0.1-0.3C68-6.1,67.9-6.1,67.9-6.1"/>
			<path clip-path="url(#SVGID_2_)" fill="#231F20" d="M71.1-8.6c-0.1,0-0.2,0-0.3,0.1c-0.1,0.1-0.1,0.2-0.1,0.3
				c0,0.1,0,0.2,0.1,0.3c0.1,0.1,0.4,0.1,0.5,0c0.1-0.1,0.1-0.2,0.1-0.3c0-0.1,0-0.2-0.1-0.3C71.3-8.6,71.2-8.6,71.1-8.6"/>
			<path clip-path="url(#SVGID_2_)" fill="#231F20" d="M66.1-9.9c-0.1,0-0.2,0-0.3,0.1c-0.1,0.1-0.1,0.2-0.1,0.3
				c0,0.1,0,0.2,0.1,0.3c0.1,0.1,0.4,0.1,0.5,0c0.1-0.1,0.1-0.2,0.1-0.3c0-0.1,0-0.2-0.1-0.3C66.3-9.8,66.2-9.9,66.1-9.9"/>
			<path clip-path="url(#SVGID_2_)" fill="#231F20" d="M60.6-23.9c-0.1,0-0.2,0-0.3,0.1c-0.1,0.1-0.1,0.2-0.1,0.3
				c0,0.1,0,0.2,0.1,0.3c0.1,0.1,0.4,0.1,0.5,0c0.1-0.1,0.1-0.2,0.1-0.3c0-0.1,0-0.2-0.1-0.3C60.8-23.8,60.7-23.9,60.6-23.9"/>
			<path clip-path="url(#SVGID_2_)" fill="#231F20" d="M55.9-23.9c-0.1,0-0.2,0-0.3,0.1c-0.1,0.1-0.1,0.2-0.1,0.3
				c0,0.1,0,0.2,0.1,0.3c0.1,0.1,0.4,0.1,0.5,0c0.1-0.1,0.1-0.2,0.1-0.3c0-0.1,0-0.2-0.1-0.3C56-23.8,55.9-23.9,55.9-23.9"/>
			<path clip-path="url(#SVGID_2_)" fill="#231F20" d="M55.9-18.9c-0.1,0-0.2,0-0.3,0.1c-0.1,0.1-0.1,0.2-0.1,0.2
				c0,0.1,0,0.2,0.1,0.3c0.1,0.1,0.3,0.1,0.5,0c0.1-0.1,0.1-0.2,0.1-0.3c0-0.1,0-0.2-0.1-0.3C56-18.8,55.9-18.9,55.9-18.9"/>
			<path clip-path="url(#SVGID_2_)" fill="#231F20" d="M65.4-25.9c-0.1,0-0.2,0-0.3,0.1C65-25.7,65-25.6,65-25.5
				c0,0.1,0,0.2,0.1,0.3c0.1,0.1,0.3,0.1,0.5,0c0.1-0.1,0.1-0.2,0.1-0.3c0-0.1,0-0.2-0.1-0.3C65.5-25.8,65.4-25.9,65.4-25.9"/>
			<path clip-path="url(#SVGID_2_)" fill="#231F20" d="M58.1-30.9c-0.1,0-0.2,0-0.3,0.1c-0.1,0.1-0.1,0.2-0.1,0.2
				c0,0.1,0,0.2,0.1,0.3c0.1,0.1,0.3,0.1,0.5,0c0.1-0.1,0.1-0.2,0.1-0.3c0-0.1,0-0.2-0.1-0.3C58.3-30.8,58.2-30.9,58.1-30.9"/>
			<path clip-path="url(#SVGID_2_)" fill="#231F20" d="M53.1-32.9c-0.1,0-0.2,0-0.3,0.1c-0.1,0.1-0.1,0.2-0.1,0.2
				c0,0.1,0,0.2,0.1,0.3c0.1,0.1,0.3,0.1,0.5,0c0.1-0.1,0.1-0.2,0.1-0.3c0-0.1,0-0.2-0.1-0.3C53.3-32.8,53.2-32.9,53.1-32.9"/>
			<path clip-path="url(#SVGID_2_)" fill="#231F20" d="M47.9-33.9c-0.1,0-0.2,0-0.3,0.1c-0.1,0.1-0.1,0.2-0.1,0.2
				c0,0.1,0,0.2,0.1,0.3c0.1,0.1,0.3,0.1,0.5,0c0.1-0.1,0.1-0.2,0.1-0.3c0-0.1,0-0.2-0.1-0.3C48-33.8,47.9-33.9,47.9-33.9"/>
			<path clip-path="url(#SVGID_2_)" fill="#231F20" d="M44.6-39.4c-0.1,0-0.2,0-0.3,0.1c-0.1,0.1-0.1,0.2-0.1,0.2
				c0,0.1,0,0.2,0.1,0.3c0.1,0.1,0.4,0.1,0.5,0c0.1-0.1,0.1-0.2,0.1-0.3c0-0.1,0-0.2-0.1-0.3C44.8-39.3,44.7-39.4,44.6-39.4"/>
			<path clip-path="url(#SVGID_2_)" fill="#231F20" d="M34.4-41.6c-0.1,0-0.2,0-0.3,0.1C34-41.4,34-41.3,34-41.3
				c0,0.1,0,0.2,0.1,0.3c0.1,0.1,0.4,0.1,0.5,0c0.1-0.1,0.1-0.2,0.1-0.3c0-0.1,0-0.2-0.1-0.3C34.5-41.6,34.4-41.6,34.4-41.6"/>
			<path clip-path="url(#SVGID_2_)" fill="#231F20" d="M41.1-48.1c-0.1,0-0.2,0-0.3,0.1c-0.1,0.1-0.1,0.2-0.1,0.3
				c0,0.1,0,0.2,0.1,0.3c0.1,0.1,0.4,0.1,0.5,0c0.1-0.1,0.1-0.2,0.1-0.3c0-0.1,0-0.2-0.1-0.3C41.3-48.1,41.2-48.1,41.1-48.1"/>
			<path clip-path="url(#SVGID_2_)" fill="#231F20" d="M46.1-52.4c-0.1,0-0.2,0-0.3,0.1c-0.1,0.1-0.1,0.2-0.1,0.3
				c0,0.1,0,0.2,0.1,0.3c0.1,0.1,0.4,0.1,0.5,0c0.1-0.1,0.1-0.2,0.1-0.3c0-0.1,0-0.2-0.1-0.3C46.3-52.3,46.2-52.4,46.1-52.4"/>
			<path clip-path="url(#SVGID_2_)" fill="#231F20" d="M46.9-56.9c-0.1,0-0.2,0-0.3,0.1c-0.1,0.1-0.1,0.2-0.1,0.3
				c0,0.1,0,0.2,0.1,0.3c0.1,0.1,0.4,0.1,0.5,0c0.1-0.1,0.1-0.2,0.1-0.3c0-0.1,0-0.2-0.1-0.3C47-56.8,46.9-56.9,46.9-56.9"/>
			<path clip-path="url(#SVGID_2_)" fill="#231F20" d="M42.4-59.6c-0.1,0-0.2,0-0.2,0.1C42-59.4,42-59.3,42-59.3
				c0,0.1,0,0.2,0.1,0.3c0.1,0.1,0.4,0.1,0.5,0c0.1-0.1,0.1-0.2,0.1-0.3c0-0.1,0-0.2-0.1-0.3C42.5-59.6,42.4-59.6,42.4-59.6"/>
			<path clip-path="url(#SVGID_2_)" fill="#231F20" d="M40.4-62.9c-0.1,0-0.2,0-0.3,0.1C40-62.7,40-62.6,40-62.5
				c0,0.1,0,0.2,0.1,0.3c0.1,0.1,0.4,0.1,0.5,0c0.1-0.1,0.1-0.2,0.1-0.3c0-0.1,0-0.2-0.1-0.3C40.5-62.8,40.5-62.9,40.4-62.9"/>
			<path clip-path="url(#SVGID_2_)" fill="#231F20" d="M36.4-62.9c-0.1,0-0.2,0-0.3,0.1C36-62.7,36-62.6,36-62.5
				c0,0.1,0,0.2,0.1,0.3c0.1,0.1,0.3,0.1,0.5,0c0.1-0.1,0.1-0.2,0.1-0.3c0-0.1,0-0.2-0.1-0.3C36.5-62.8,36.4-62.9,36.4-62.9"/>
			<path clip-path="url(#SVGID_2_)" fill="#231F20" d="M36.9-52.9c-0.1,0-0.2,0-0.3,0.1c-0.1,0.1-0.1,0.2-0.1,0.3
				c0,0.1,0,0.2,0.1,0.3c0.1,0.1,0.4,0.1,0.5,0c0.1-0.1,0.1-0.1,0.1-0.2c0-0.1,0-0.2-0.1-0.3C37-52.8,36.9-52.9,36.9-52.9"/>
			<path clip-path="url(#SVGID_2_)" fill="#231F20" d="M30.4-63.6c-0.1,0-0.2,0-0.2,0.1C30-63.4,30-63.3,30-63.3
				c0,0.1,0,0.2,0.1,0.3c0.1,0.1,0.4,0.1,0.5,0c0.1-0.1,0.1-0.2,0.1-0.3c0-0.1,0-0.2-0.1-0.3C30.5-63.6,30.4-63.6,30.4-63.6"/>
			<path clip-path="url(#SVGID_2_)" fill="#231F20" d="M31.9-68.6c-0.1,0-0.2,0-0.3,0.1c-0.1,0.1-0.1,0.2-0.1,0.3
				c0,0.1,0,0.2,0.1,0.3c0.1,0.1,0.4,0.1,0.5,0c0.1-0.1,0.1-0.2,0.1-0.3c0-0.1,0-0.2-0.1-0.3C32-68.6,31.9-68.6,31.9-68.6"/>
			<path clip-path="url(#SVGID_2_)" fill="#231F20" d="M37.4-71.1c-0.1,0-0.2,0-0.3,0.1C37-70.9,37-70.8,37-70.8
				c0,0.1,0,0.2,0.1,0.3c0.1,0.1,0.4,0.1,0.5,0c0.1-0.1,0.1-0.2,0.1-0.3c0-0.1,0-0.2-0.1-0.3C37.5-71.1,37.4-71.1,37.4-71.1"/>
			<path clip-path="url(#SVGID_2_)" fill="#231F20" d="M63.4-57.1c-0.1,0-0.2,0-0.3,0.1C63-56.9,63-56.8,63-56.8
				c0,0.1,0,0.2,0.1,0.3c0.1,0.1,0.3,0.1,0.5,0c0.1-0.1,0.1-0.2,0.1-0.3c0-0.1,0-0.2-0.1-0.3C63.5-57.1,63.4-57.1,63.4-57.1"/>
			<path clip-path="url(#SVGID_2_)" fill="#231F20" d="M60.4-50.9c-0.1,0-0.2,0-0.3,0.1C60-50.7,60-50.6,60-50.5
				c0,0.1,0,0.2,0.1,0.3c0.1,0.1,0.3,0.1,0.5,0c0.1-0.1,0.1-0.2,0.1-0.3c0-0.1,0-0.2-0.1-0.3C60.5-50.8,60.5-50.9,60.4-50.9"/>
			<path clip-path="url(#SVGID_2_)" fill="#231F20" d="M54.9-50.6c-0.1,0-0.2,0-0.3,0.1c-0.1,0.1-0.1,0.2-0.1,0.3
				c0,0.1,0,0.2,0.1,0.3c0.1,0.1,0.4,0.1,0.5,0c0.1-0.1,0.1-0.2,0.1-0.3c0-0.1,0-0.2-0.1-0.2C55-50.6,55-50.6,54.9-50.6"/>
			<path clip-path="url(#SVGID_2_)" fill="#231F20" d="M55.1-41.9c-0.1,0-0.2,0-0.3,0.1c-0.1,0.1-0.1,0.2-0.1,0.2
				c0,0.1,0,0.2,0.1,0.3c0.1,0.1,0.4,0.1,0.5,0c0.1-0.1,0.1-0.2,0.1-0.3c0-0.1,0-0.2-0.1-0.3C55.3-41.8,55.2-41.9,55.1-41.9"/>
			<path clip-path="url(#SVGID_2_)" fill="#231F20" d="M62.9-42.4c-0.1,0-0.2,0-0.3,0.1c-0.1,0.1-0.1,0.2-0.1,0.3
				c0,0.1,0,0.2,0.1,0.3c0.1,0.1,0.4,0.1,0.5,0c0.1-0.1,0.1-0.2,0.1-0.3c0-0.1,0-0.2-0.1-0.3C63-42.3,62.9-42.4,62.9-42.4"/>
			<path clip-path="url(#SVGID_2_)" fill="#231F20" d="M67.4-47.6c-0.1,0-0.2,0-0.2,0.1C67-47.4,67-47.3,67-47.3
				c0,0.1,0,0.2,0.1,0.3c0.1,0.1,0.4,0.1,0.5,0c0.1-0.1,0.1-0.2,0.1-0.3c0-0.1,0-0.2-0.1-0.3C67.5-47.6,67.4-47.6,67.4-47.6"/>
			<path clip-path="url(#SVGID_2_)" fill="#231F20" d="M69.9-54.4c-0.1,0-0.2,0-0.2,0.1c-0.1,0.1-0.1,0.2-0.1,0.3
				c0,0.1,0,0.2,0.1,0.3c0.1,0.1,0.4,0.1,0.5,0c0.1-0.1,0.1-0.2,0.1-0.3c0-0.1,0-0.2-0.1-0.3C70-54.3,69.9-54.4,69.9-54.4"/>
			<path clip-path="url(#SVGID_2_)" fill="#231F20" d="M63.9-61.9c-0.1,0-0.2,0-0.2,0.1c-0.1,0.1-0.1,0.2-0.1,0.3
				c0,0.1,0,0.2,0.1,0.3c0.1,0.1,0.4,0.1,0.5,0c0.1-0.1,0.1-0.2,0.1-0.3c0-0.1,0-0.2-0.1-0.3C64-61.8,63.9-61.9,63.9-61.9"/>
			<path clip-path="url(#SVGID_2_)" fill="#231F20" d="M70.6-61.1c-0.1,0-0.2,0-0.3,0.1c-0.1,0.1-0.1,0.2-0.1,0.3
				c0,0.1,0,0.2,0.1,0.3c0.1,0.1,0.3,0.1,0.5,0c0.1-0.1,0.1-0.2,0.1-0.3c0-0.1,0-0.2-0.1-0.3C70.8-61.1,70.7-61.1,70.6-61.1"/>
			<path clip-path="url(#SVGID_2_)" fill="#231F20" d="M65.1-65.6c-0.1,0-0.2,0-0.3,0.1c-0.1,0.1-0.1,0.2-0.1,0.3
				c0,0.1,0,0.2,0.1,0.3c0.1,0.1,0.4,0.1,0.5,0c0.1-0.1,0.1-0.2,0.1-0.2c0-0.1,0-0.2-0.1-0.3C65.3-65.6,65.2-65.6,65.1-65.6"/>
			<path clip-path="url(#SVGID_2_)" fill="#231F20" d="M66.1-68.4c-0.1,0-0.2,0-0.3,0.1c-0.1,0.1-0.1,0.2-0.1,0.3
				c0,0.1,0,0.2,0.1,0.3c0.1,0.1,0.4,0.1,0.5,0c0.1-0.1,0.1-0.2,0.1-0.3c0-0.1,0-0.2-0.1-0.3C66.3-68.3,66.2-68.4,66.1-68.4"/>
			<path clip-path="url(#SVGID_2_)" fill="#231F20" d="M62.9-70.4c-0.1,0-0.2,0-0.3,0.1c-0.1,0.1-0.1,0.2-0.1,0.3
				c0,0.1,0,0.2,0.1,0.3c0.1,0.1,0.4,0.1,0.5,0c0.1-0.1,0.1-0.1,0.1-0.2c0-0.1,0-0.2-0.1-0.3C63-70.3,62.9-70.4,62.9-70.4"/>
			<path clip-path="url(#SVGID_2_)" fill="#231F20" d="M53.1-69.9c-0.1,0-0.2,0-0.3,0.1c-0.1,0.1-0.1,0.2-0.1,0.3
				c0,0.1,0,0.2,0.1,0.3c0.1,0.1,0.4,0.1,0.5,0c0.1-0.1,0.1-0.2,0.1-0.3c0-0.1,0-0.2-0.1-0.3C53.3-69.8,53.2-69.9,53.1-69.9"/>
			<path clip-path="url(#SVGID_2_)" fill="#231F20" d="M45.1-66.6c-0.1,0-0.2,0-0.3,0.1c-0.1,0.1-0.1,0.2-0.1,0.2
				c0,0.1,0,0.2,0.1,0.3c0.1,0.1,0.3,0.1,0.5,0c0.1-0.1,0.1-0.2,0.1-0.3c0-0.1,0-0.2-0.1-0.3C45.3-66.6,45.2-66.6,45.1-66.6"/>
			<path clip-path="url(#SVGID_2_)" fill="#231F20" d="M28.9-71.4c-0.1,0-0.2,0-0.3,0.1c-0.1,0.1-0.1,0.2-0.1,0.3
				c0,0.1,0,0.2,0.1,0.3c0.1,0.1,0.3,0.1,0.5,0c0.1-0.1,0.1-0.2,0.1-0.3c0-0.1,0-0.2-0.1-0.3C29-71.3,28.9-71.4,28.9-71.4"/>
			<path clip-path="url(#SVGID_2_)" fill="#231F20" d="M3.4-29.6c-0.1,0-0.2,0-0.3,0.1C3-29.4,3-29.3,3-29.3c0,0.1,0,0.2,0.1,0.3
				c0.1,0.1,0.4,0.1,0.5,0c0.1-0.1,0.1-0.2,0.1-0.3c0-0.1,0-0.2-0.1-0.3C3.5-29.6,3.4-29.6,3.4-29.6"/>
			<path clip-path="url(#SVGID_2_)" fill="#231F20" d="M13.6-5.1c-0.1,0-0.2,0-0.3,0.1c-0.1,0.1-0.1,0.1-0.1,0.2
				c0,0.1,0,0.2,0.1,0.3c0.1,0.1,0.4,0.1,0.5,0C13.9-4.6,14-4.7,14-4.8c0-0.1,0-0.2-0.1-0.3C13.8-5.1,13.7-5.1,13.6-5.1"/>
			<path clip-path="url(#SVGID_2_)" fill="#231F20" d="M70.6-34.6c-0.1,0-0.2,0-0.3,0.1c-0.1,0.1-0.1,0.2-0.1,0.3
				c0,0.1,0,0.2,0.1,0.3c0.1,0.1,0.3,0.1,0.5,0c0.1-0.1,0.1-0.2,0.1-0.3c0-0.1,0-0.2-0.1-0.3C70.8-34.6,70.7-34.6,70.6-34.6"/>
			<path clip-path="url(#SVGID_2_)" fill="#231F20" d="M71.6-41.4c-0.1,0-0.2,0-0.3,0.1c-0.1,0.1-0.1,0.2-0.1,0.3
				c0,0.1,0,0.2,0.1,0.3c0.1,0.1,0.4,0.1,0.5,0c0.1-0.1,0.1-0.2,0.1-0.3c0-0.1,0-0.2-0.1-0.3C71.8-41.3,71.7-41.4,71.6-41.4"/>
			<path clip-path="url(#SVGID_2_)" fill="#231F20" d="M1.4-51.9c-0.1,0-0.2,0-0.3,0.1C1-51.7,1-51.6,1-51.5c0,0.1,0,0.2,0.1,0.3
				c0.1,0.1,0.3,0.1,0.5,0c0.1-0.1,0.1-0.2,0.1-0.3c0-0.1,0-0.2-0.1-0.3C1.5-51.8,1.4-51.9,1.4-51.9"/>
			<path clip-path="url(#SVGID_2_)" fill="#231F20" d="M72.4-23.6c-0.1,0-0.2,0-0.3,0.1C72-23.4,72-23.3,72-23.3
				c0,0.1,0,0.2,0.1,0.3c0.1,0.1,0.4,0.1,0.5,0c0.1-0.1,0.1-0.2,0.1-0.3c0-0.1,0-0.2-0.1-0.3C72.5-23.6,72.4-23.6,72.4-23.6"/>
			<path clip-path="url(#SVGID_2_)" fill="#231F20" d="M69.4-26.6c-0.1,0-0.2,0-0.3,0.1C69-26.4,69-26.3,69-26.3
				c0,0.1,0,0.2,0.1,0.3c0.1,0.1,0.4,0.1,0.5,0c0.1-0.1,0.1-0.2,0.1-0.3c0-0.1,0-0.2-0.1-0.3C69.5-26.6,69.4-26.6,69.4-26.6"/>
			<path clip-path="url(#SVGID_2_)" fill="#231F20" d="M68.9-60.4c-0.1,0-0.2,0-0.3,0.1c-0.1,0.1-0.1,0.2-0.1,0.3
				c0,0.1,0,0.2,0.1,0.3c0.1,0.1,0.4,0.1,0.5,0c0.1-0.1,0.1-0.2,0.1-0.3c0-0.1,0-0.2-0.1-0.3C69-60.3,68.9-60.4,68.9-60.4"/>
			<path clip-path="url(#SVGID_2_)" fill="#231F20" d="M71.9-68.4c-0.1,0-0.2,0-0.3,0.1c-0.1,0.1-0.1,0.2-0.1,0.3
				c0,0.1,0,0.2,0.1,0.3c0.1,0.1,0.4,0.1,0.5,0c0.1-0.1,0.1-0.2,0.1-0.3c0-0.1,0-0.2-0.1-0.3C72-68.3,71.9-68.4,71.9-68.4"/>
			<path clip-path="url(#SVGID_2_)" fill="#231F20" d="M0.9-57.9c-0.1,0-0.2,0-0.3,0.1c-0.1,0.1-0.1,0.2-0.1,0.3
				c0,0.1,0,0.2,0.1,0.3c0.1,0.1,0.4,0.1,0.5,0c0.1-0.1,0.1-0.2,0.1-0.3c0-0.1,0-0.2-0.1-0.3C1-57.8,0.9-57.9,0.9-57.9"/>
			<path clip-path="url(#SVGID_2_)" fill="#231F20" d="M3.1-71.4c-0.1,0-0.2,0-0.3,0.1c-0.1,0.1-0.1,0.2-0.1,0.3
				c0,0.1,0,0.2,0.1,0.3c0.1,0.1,0.4,0.1,0.5,0c0.1-0.1,0.1-0.2,0.1-0.3c0-0.1,0-0.2-0.1-0.3C3.3-71.3,3.2-71.4,3.1-71.4"/>
			<path clip-path="url(#SVGID_2_)" fill="#231F20" d="M70.6-24.1c-0.1,0-0.2,0-0.3,0.1c-0.1,0.1-0.1,0.2-0.1,0.3
				c0,0.1,0,0.2,0.1,0.3c0.1,0.1,0.3,0.1,0.5,0c0.1-0.1,0.1-0.2,0.1-0.3c0-0.1,0-0.2-0.1-0.3C70.8-24.1,70.7-24.1,70.6-24.1"/>
			<path clip-path="url(#SVGID_2_)" fill="#231F20" d="M1.6-16.9c-0.1,0-0.2,0-0.3,0.1c-0.1,0.1-0.1,0.2-0.1,0.3
				c0,0.1,0,0.2,0.1,0.3c0.1,0.1,0.4,0.1,0.5,0C1.9-16.3,2-16.4,2-16.5c0-0.1,0-0.2-0.1-0.3C1.8-16.8,1.7-16.9,1.6-16.9"/>
			<path clip-path="url(#SVGID_2_)" fill="#231F20" d="M18.4-13.2c-0.2,0-0.3,0.1-0.5,0.2c-0.1,0.1-0.2,0.3-0.2,0.5
				c0,0.2,0.1,0.3,0.2,0.5c0.2,0.2,0.7,0.2,0.9,0c0.1-0.1,0.2-0.3,0.2-0.5c0-0.2-0.1-0.3-0.2-0.5C18.7-13.1,18.5-13.2,18.4-13.2"/>
			<path clip-path="url(#SVGID_2_)" fill="#231F20" d="M29.6-11.2c-0.2,0-0.3,0.1-0.5,0.2C29-10.8,29-10.7,29-10.5
				c0,0.2,0.1,0.3,0.2,0.5c0.3,0.3,0.7,0.2,0.9,0c0.1-0.1,0.2-0.3,0.2-0.5c0-0.2-0.1-0.3-0.2-0.5C29.9-11.1,29.8-11.2,29.6-11.2"/>
			<path clip-path="url(#SVGID_2_)" fill="#231F20" d="M29.6-3.7c-0.2,0-0.3,0.1-0.5,0.2C29-3.3,29-3.2,29-3c0,0.2,0.1,0.3,0.2,0.5
				c0.2,0.2,0.7,0.2,0.9,0c0.1-0.1,0.2-0.3,0.2-0.5c0-0.2-0.1-0.3-0.2-0.5C29.9-3.6,29.8-3.7,29.6-3.7"/>
			<path clip-path="url(#SVGID_2_)" fill="#231F20" d="M40.6-10.7c-0.2,0-0.3,0.1-0.5,0.2C40-10.3,40-10.2,40-10
				c0,0.2,0.1,0.3,0.2,0.5c0.2,0.2,0.7,0.2,0.9,0c0.1-0.1,0.2-0.3,0.2-0.5c0-0.2-0.1-0.3-0.2-0.5C40.9-10.6,40.8-10.7,40.6-10.7"/>
			<path clip-path="url(#SVGID_2_)" fill="#231F20" d="M45.4-12.2c-0.2,0-0.3,0.1-0.5,0.2c-0.1,0.1-0.2,0.3-0.2,0.4
				c0,0.2,0.1,0.3,0.2,0.5c0.2,0.2,0.7,0.2,0.9,0c0.1-0.1,0.2-0.3,0.2-0.5c0-0.2-0.1-0.3-0.2-0.5C45.7-12.1,45.5-12.2,45.4-12.2"/>
			<path clip-path="url(#SVGID_2_)" fill="#231F20" d="M47.6-23.2c-0.2,0-0.3,0.1-0.5,0.2C47-22.8,47-22.7,47-22.5
				c0,0.2,0.1,0.3,0.2,0.5c0.2,0.2,0.7,0.2,0.9,0c0.1-0.1,0.2-0.3,0.2-0.5c0-0.2-0.1-0.3-0.2-0.5C47.9-23.1,47.8-23.2,47.6-23.2"/>
			<path clip-path="url(#SVGID_2_)" fill="#231F20" d="M55.1-7.2c-0.2,0-0.3,0.1-0.5,0.2c-0.1,0.1-0.2,0.3-0.2,0.5
				c0,0.2,0.1,0.3,0.2,0.5c0.2,0.2,0.7,0.2,0.9,0c0.1-0.1,0.2-0.3,0.2-0.5c0-0.2-0.1-0.3-0.2-0.5C55.4-7.1,55.3-7.2,55.1-7.2"/>
			<path clip-path="url(#SVGID_2_)" fill="#231F20" d="M64.4-6.9c-0.2,0-0.3,0.1-0.5,0.2c-0.1,0.1-0.2,0.3-0.2,0.5
				c0,0.2,0.1,0.3,0.2,0.5c0.2,0.2,0.7,0.2,0.9,0C64.9-5.9,65-6.1,65-6.3c0-0.2-0.1-0.3-0.2-0.5C64.7-6.8,64.5-6.9,64.4-6.9"/>
			<path clip-path="url(#SVGID_2_)" fill="#231F20" d="M65.4-2.9c-0.2,0-0.3,0.1-0.5,0.2c-0.1,0.1-0.2,0.3-0.2,0.5
				c0,0.2,0.1,0.3,0.2,0.5c0.3,0.2,0.7,0.2,0.9,0C65.9-1.9,66-2.1,66-2.3c0-0.2-0.1-0.3-0.2-0.4C65.7-2.8,65.5-2.9,65.4-2.9"/>
			<path clip-path="url(#SVGID_2_)" fill="#231F20" d="M69.9-18.4c-0.2,0-0.3,0.1-0.5,0.2c-0.1,0.1-0.2,0.3-0.2,0.5
				c0,0.2,0.1,0.3,0.2,0.5c0.2,0.2,0.7,0.3,0.9,0c0.1-0.1,0.2-0.3,0.2-0.5c0-0.2-0.1-0.3-0.2-0.5C70.2-18.3,70-18.4,69.9-18.4"/>
			<path clip-path="url(#SVGID_2_)" fill="#231F20" d="M8.4-47.4c-0.2,0-0.3,0.1-0.5,0.2c-0.1,0.1-0.2,0.3-0.2,0.5s0.1,0.3,0.2,0.5
				c0.2,0.2,0.7,0.2,0.9,0C8.9-46.4,9-46.6,9-46.8s-0.1-0.3-0.2-0.5C8.7-47.3,8.5-47.4,8.4-47.4"/>
			<path clip-path="url(#SVGID_2_)" fill="#231F20" d="M5.4-57.2c-0.2,0-0.3,0.1-0.5,0.2c-0.1,0.1-0.2,0.3-0.2,0.5s0.1,0.3,0.2,0.5
				c0.3,0.3,0.7,0.2,0.9,0C5.9-56.2,6-56.3,6-56.5S5.9-56.8,5.8-57C5.7-57.1,5.5-57.2,5.4-57.2"/>
			<path clip-path="url(#SVGID_2_)" fill="#231F20" d="M2.6-67.4c-0.2,0-0.3,0.1-0.5,0.2C2-67.1,2-66.9,2-66.8
				c0,0.2,0.1,0.3,0.2,0.5c0.2,0.2,0.7,0.2,0.9,0c0.1-0.1,0.2-0.3,0.2-0.5c0-0.2-0.1-0.3-0.2-0.5C2.9-67.3,2.8-67.4,2.6-67.4"/>
			<path clip-path="url(#SVGID_2_)" fill="#231F20" d="M18.1-70.2c-0.2,0-0.3,0.1-0.5,0.2c-0.1,0.1-0.2,0.3-0.2,0.5
				c0,0.2,0.1,0.3,0.2,0.5c0.2,0.2,0.7,0.2,0.9,0c0.1-0.1,0.2-0.3,0.2-0.5c0-0.2-0.1-0.3-0.2-0.5C18.4-70.1,18.3-70.2,18.1-70.2"/>
			<path clip-path="url(#SVGID_2_)" fill="#231F20" d="M19.6-62.7c-0.2,0-0.3,0.1-0.5,0.2C19-62.3,19-62.2,19-62
				c0,0.2,0.1,0.3,0.2,0.5c0.2,0.2,0.7,0.3,0.9,0c0.1-0.1,0.2-0.3,0.2-0.5s-0.1-0.3-0.2-0.5C19.9-62.6,19.8-62.7,19.6-62.7"/>
			<path clip-path="url(#SVGID_2_)" fill="#231F20" d="M21.4-45.7c-0.2,0-0.3,0.1-0.5,0.2c-0.1,0.1-0.2,0.3-0.2,0.5
				c0,0.2,0.1,0.3,0.2,0.5c0.2,0.2,0.7,0.3,0.9,0c0.1-0.1,0.2-0.3,0.2-0.5s-0.1-0.3-0.2-0.5C21.7-45.6,21.5-45.7,21.4-45.7"/>
			<path clip-path="url(#SVGID_2_)" fill="#231F20" d="M28.9-51.4c-0.2,0-0.3,0.1-0.5,0.2c-0.1,0.1-0.2,0.3-0.2,0.5s0.1,0.3,0.2,0.5
				c0.2,0.2,0.7,0.3,0.9,0c0.1-0.1,0.2-0.3,0.2-0.5s-0.1-0.3-0.2-0.5C29.2-51.3,29-51.4,28.9-51.4"/>
			<path clip-path="url(#SVGID_2_)" fill="#231F20" d="M34.4-60.7c-0.2,0-0.3,0.1-0.5,0.2c-0.1,0.1-0.2,0.3-0.2,0.5
				c0,0.2,0.1,0.3,0.2,0.5c0.2,0.2,0.7,0.2,0.9,0c0.1-0.1,0.2-0.3,0.2-0.5c0-0.2-0.1-0.3-0.2-0.5C34.7-60.6,34.5-60.7,34.4-60.7"/>
			<path clip-path="url(#SVGID_2_)" fill="#231F20" d="M34.6-67.2c-0.2,0-0.3,0.1-0.5,0.2C34-66.8,34-66.7,34-66.5
				c0,0.2,0.1,0.3,0.2,0.5c0.3,0.3,0.7,0.2,0.9,0c0.1-0.1,0.2-0.3,0.2-0.5c0-0.2-0.1-0.3-0.2-0.5C34.9-67.1,34.8-67.2,34.6-67.2"/>
			<path clip-path="url(#SVGID_2_)" fill="#231F20" d="M42.1-55.4c-0.2,0-0.3,0.1-0.5,0.2c-0.1,0.1-0.2,0.3-0.2,0.5s0.1,0.3,0.2,0.5
				c0.2,0.2,0.7,0.2,0.9,0c0.1-0.1,0.2-0.3,0.2-0.5s-0.1-0.3-0.2-0.5C42.4-55.3,42.3-55.4,42.1-55.4"/>
			<path clip-path="url(#SVGID_2_)" fill="#231F20" d="M52.6-60.2c-0.2,0-0.3,0.1-0.5,0.2C52-59.8,52-59.7,52-59.5s0.1,0.3,0.2,0.5
				c0.2,0.2,0.7,0.2,0.9,0c0.1-0.1,0.2-0.3,0.2-0.5s-0.1-0.3-0.2-0.5C52.9-60.1,52.8-60.2,52.6-60.2"/>
			<path clip-path="url(#SVGID_2_)" fill="#231F20" d="M55.4-65.7c-0.2,0-0.3,0.1-0.5,0.2c-0.1,0.1-0.2,0.3-0.2,0.5
				c0,0.2,0.1,0.3,0.2,0.5c0.2,0.2,0.7,0.2,0.9,0c0.1-0.1,0.2-0.3,0.2-0.5c0-0.2-0.1-0.3-0.2-0.5C55.7-65.6,55.5-65.7,55.4-65.7"/>
			<path clip-path="url(#SVGID_2_)" fill="#231F20" d="M25.6-24.9c-0.2,0-0.3,0.1-0.5,0.2C25-24.6,25-24.4,25-24.3
				c0,0.2,0.1,0.3,0.2,0.5c0.2,0.2,0.7,0.2,0.9,0c0.1-0.1,0.2-0.3,0.2-0.5c0-0.2-0.1-0.3-0.2-0.5C25.9-24.8,25.8-24.9,25.6-24.9"/>
			<path clip-path="url(#SVGID_2_)" fill="#231F20" d="M35.6-23.7c-0.2,0-0.3,0.1-0.5,0.2C35-23.3,35-23.2,35-23
				c0,0.2,0.1,0.3,0.2,0.5c0.2,0.2,0.7,0.2,0.9,0c0.1-0.1,0.2-0.3,0.2-0.5c0-0.2-0.1-0.3-0.2-0.5C35.9-23.6,35.8-23.7,35.6-23.7"/>
			<path clip-path="url(#SVGID_2_)" fill="#231F20" d="M45.4-29.9c-0.2,0-0.3,0.1-0.5,0.2c-0.1,0.1-0.2,0.3-0.2,0.5
				c0,0.2,0.1,0.3,0.2,0.5c0.2,0.2,0.7,0.2,0.9,0c0.1-0.1,0.2-0.3,0.2-0.5c0-0.2-0.1-0.3-0.2-0.5C45.7-29.8,45.5-29.9,45.4-29.9"/>
			<path clip-path="url(#SVGID_2_)" fill="#231F20" d="M52.4-43.4c-0.2,0-0.3,0.1-0.5,0.2c-0.1,0.1-0.2,0.3-0.2,0.5s0.1,0.3,0.2,0.5
				c0.2,0.2,0.7,0.3,0.9,0c0.1-0.1,0.2-0.3,0.2-0.5c0-0.2-0.1-0.3-0.2-0.5C52.7-43.3,52.5-43.4,52.4-43.4"/>
			<path clip-path="url(#SVGID_2_)" fill="#231F20" d="M67.4-52.2c-0.2,0-0.3,0.1-0.5,0.2c-0.1,0.1-0.2,0.3-0.2,0.5
				c0,0.2,0.1,0.3,0.2,0.5c0.2,0.2,0.7,0.2,0.9,0c0.1-0.1,0.2-0.3,0.2-0.5s-0.1-0.3-0.2-0.5C67.7-52.1,67.5-52.2,67.4-52.2"/>
			<path clip-path="url(#SVGID_2_)" fill="#231F20" d="M47.6-48.2c-0.2,0-0.3,0.1-0.5,0.2C47-47.8,47-47.7,47-47.5s0.1,0.3,0.2,0.5
				c0.2,0.2,0.7,0.2,0.9,0c0.1-0.1,0.2-0.3,0.2-0.5s-0.1-0.3-0.2-0.5C47.9-48.1,47.8-48.2,47.6-48.2"/>
			<path clip-path="url(#SVGID_2_)" fill="#231F20" d="M37.4-44.9c-0.2,0-0.3,0.1-0.5,0.2c-0.1,0.1-0.2,0.3-0.2,0.5s0.1,0.3,0.2,0.5
				c0.2,0.2,0.7,0.2,0.9,0c0.1-0.1,0.2-0.3,0.2-0.5s-0.1-0.3-0.2-0.5C37.7-44.8,37.5-44.9,37.4-44.9"/>
			<path clip-path="url(#SVGID_2_)" fill="#231F20" d="M17.4-28.9c-0.2,0-0.3,0.1-0.5,0.2c-0.1,0.1-0.2,0.3-0.2,0.5
				c0,0.2,0.1,0.3,0.2,0.5c0.3,0.2,0.7,0.2,0.9,0c0.1-0.1,0.2-0.3,0.2-0.5c0-0.2-0.1-0.3-0.2-0.5C17.7-28.8,17.5-28.9,17.4-28.9"/>
			<path clip-path="url(#SVGID_2_)" fill="#231F20" d="M11.6-37.2c-0.2,0-0.3,0.1-0.5,0.2C11-36.8,11-36.7,11-36.5
				c0,0.2,0.1,0.3,0.2,0.5c0.3,0.3,0.7,0.2,0.9,0c0.1-0.1,0.2-0.3,0.2-0.5c0-0.2-0.1-0.3-0.2-0.5C11.9-37.1,11.8-37.2,11.6-37.2"/>
			<path clip-path="url(#SVGID_2_)" fill="#231F20" d="M67.9-31.2c-0.2,0-0.3,0.1-0.5,0.2c-0.1,0.1-0.2,0.3-0.2,0.5
				c0,0.2,0.1,0.3,0.2,0.5c0.2,0.2,0.7,0.2,0.9,0c0.1-0.1,0.2-0.3,0.2-0.5c0-0.2-0.1-0.3-0.2-0.5C68.2-31.1,68-31.2,67.9-31.2"/>
			<path clip-path="url(#SVGID_2_)" fill="#231F20" d="M7.6-16.2c-0.2,0-0.3,0.1-0.5,0.2C7-15.8,7-15.7,7-15.5C7-15.3,7-15.2,7.1-15
				c0.2,0.2,0.7,0.3,0.9,0c0.1-0.1,0.2-0.3,0.2-0.5c0-0.2-0.1-0.3-0.2-0.5C7.9-16.1,7.8-16.2,7.6-16.2"/>
			<path clip-path="url(#SVGID_2_)" fill="#231F20" d="M8.9-5.7c-0.2,0-0.3,0.1-0.5,0.2C8.3-5.3,8.2-5.2,8.2-5
				c0,0.2,0.1,0.3,0.2,0.5c0.2,0.2,0.7,0.3,0.9,0C9.4-4.7,9.5-4.8,9.5-5c0-0.2-0.1-0.3-0.2-0.5C9.2-5.6,9-5.7,8.9-5.7"/>
			<path clip-path="url(#SVGID_2_)" fill="#231F20" d="M3.9-2.9c-0.2,0-0.3,0.1-0.5,0.2C3.3-2.6,3.2-2.4,3.2-2.3
				c0,0.2,0.1,0.3,0.2,0.5c0.2,0.2,0.7,0.2,0.9,0c0.1-0.1,0.2-0.3,0.2-0.5c0-0.2-0.1-0.3-0.2-0.5C4.2-2.8,4-2.9,3.9-2.9"/>
			<path clip-path="url(#SVGID_2_)" fill="#231F20" d="M66.9-37.7c-0.2,0-0.3,0.1-0.5,0.2c-0.1,0.1-0.2,0.3-0.2,0.5
				c0,0.2,0.1,0.3,0.2,0.5c0.2,0.2,0.7,0.2,0.9,0c0.1-0.1,0.2-0.3,0.2-0.5c0-0.2-0.1-0.3-0.2-0.5C67.2-37.6,67-37.7,66.9-37.7"/>
			<path clip-path="url(#SVGID_2_)" fill="#231F20" d="M44.4-63.4c-0.2,0-0.3,0.1-0.5,0.2c-0.1,0.1-0.2,0.3-0.2,0.5s0.1,0.3,0.2,0.5
				c0.2,0.2,0.7,0.3,0.9,0c0.1-0.1,0.2-0.3,0.2-0.5s-0.1-0.3-0.2-0.5C44.7-63.3,44.5-63.4,44.4-63.4"/>
			<path clip-path="url(#SVGID_2_)" fill="#231F20" d="M26.1-70.4c-0.2,0-0.3,0.1-0.5,0.2c-0.1,0.1-0.2,0.3-0.2,0.5
				c0,0.2,0.1,0.3,0.2,0.5c0.3,0.3,0.7,0.2,0.9,0c0.1-0.1,0.2-0.3,0.2-0.5c0-0.2-0.1-0.3-0.2-0.5C26.4-70.3,26.3-70.4,26.1-70.4"/>
			<path clip-path="url(#SVGID_2_)" fill="#231F20" d="M22.4-42.2c-0.2,0-0.3,0.1-0.5,0.2c-0.1,0.1-0.2,0.3-0.2,0.5
				c0,0.2,0.1,0.3,0.2,0.5c0.2,0.2,0.7,0.2,0.9,0c0.1-0.1,0.2-0.3,0.2-0.5s-0.1-0.3-0.2-0.5C22.7-42.1,22.5-42.2,22.4-42.2"/>
			<path clip-path="url(#SVGID_2_)" fill="#231F20" d="M24.4-29.4c-0.2,0-0.3,0.1-0.5,0.2c-0.1,0.1-0.2,0.3-0.2,0.5
				c0,0.2,0.1,0.3,0.2,0.5c0.2,0.2,0.7,0.3,0.9,0c0.1-0.1,0.2-0.3,0.2-0.5c0-0.2-0.1-0.3-0.2-0.5C24.7-29.3,24.5-29.4,24.4-29.4"/>
			<path clip-path="url(#SVGID_2_)" fill="#231F20" d="M41.9-34.9c-0.2,0-0.3,0.1-0.5,0.2c-0.1,0.1-0.2,0.3-0.2,0.5
				c0,0.2,0.1,0.3,0.2,0.5c0.2,0.2,0.7,0.2,0.9,0c0.1-0.1,0.2-0.3,0.2-0.5c0-0.2-0.1-0.3-0.2-0.5C42.2-34.8,42-34.9,41.9-34.9"/>
			<path clip-path="url(#SVGID_2_)" fill="#231F20" d="M67.9-44.2c-0.2,0-0.3,0.1-0.5,0.2c-0.1,0.1-0.2,0.3-0.2,0.5s0.1,0.3,0.2,0.5
				c0.2,0.2,0.7,0.2,0.9,0c0.1-0.1,0.2-0.3,0.2-0.5c0-0.2-0.1-0.3-0.2-0.5C68.2-44.1,68-44.2,67.9-44.2"/>
			<path clip-path="url(#SVGID_2_)" fill="#231F20" d="M53.6-15.4c-0.2,0-0.3,0.1-0.5,0.2C53-15.1,53-14.9,53-14.8
				c0,0.2,0.1,0.3,0.2,0.5c0.2,0.2,0.7,0.2,0.9,0c0.1-0.1,0.2-0.3,0.2-0.5c0-0.2-0.1-0.3-0.2-0.5C53.9-15.3,53.8-15.4,53.6-15.4"/>
			<path clip-path="url(#SVGID_2_)" fill="#231F20" d="M34.4-16.4c-0.2,0-0.3,0.1-0.5,0.2c-0.1,0.1-0.2,0.3-0.2,0.5
				c0,0.2,0.1,0.3,0.2,0.5c0.2,0.2,0.7,0.2,0.9,0c0.1-0.1,0.2-0.3,0.2-0.5c0-0.2-0.1-0.3-0.2-0.5C34.7-16.3,34.5-16.4,34.4-16.4"/>
			<path clip-path="url(#SVGID_2_)" fill="#231F20" d="M13.1-19.7c-0.2,0-0.3,0.1-0.5,0.2c-0.1,0.1-0.2,0.3-0.2,0.5
				c0,0.2,0.1,0.3,0.2,0.5c0.3,0.3,0.7,0.2,0.9,0c0.1-0.1,0.2-0.3,0.2-0.5c0-0.2-0.1-0.3-0.2-0.5C13.4-19.6,13.3-19.7,13.1-19.7"/>
			<path clip-path="url(#SVGID_2_)" fill="#231F20" d="M49.9-4.9c-0.2,0-0.3,0.1-0.5,0.2c-0.1,0.1-0.2,0.3-0.2,0.5
				c0,0.2,0.1,0.3,0.2,0.5c0.2,0.2,0.7,0.2,0.9,0c0.1-0.1,0.2-0.3,0.2-0.5c0-0.2-0.1-0.3-0.2-0.5C50.2-4.8,50-4.9,49.9-4.9"/>
			<path clip-path="url(#SVGID_2_)" fill="#231F20" d="M59.4-21.2c-0.2,0-0.3,0.1-0.5,0.2c-0.1,0.1-0.2,0.3-0.2,0.5
				c0,0.2,0.1,0.3,0.2,0.5c0.3,0.2,0.7,0.2,0.9,0c0.1-0.1,0.2-0.3,0.2-0.5c0-0.2-0.1-0.3-0.2-0.5C59.7-21.1,59.5-21.2,59.4-21.2"/>
			<path clip-path="url(#SVGID_2_)" fill="#231F20" d="M67.9-57.7c-0.2,0-0.3,0.1-0.5,0.2c-0.1,0.1-0.2,0.3-0.2,0.5s0.1,0.3,0.2,0.5
				c0.2,0.2,0.7,0.2,0.9,0c0.1-0.1,0.2-0.3,0.2-0.5c0-0.2-0.1-0.3-0.2-0.5C68.2-57.6,68-57.7,67.9-57.7"/>
			<path clip-path="url(#SVGID_2_)" fill="#231F20" d="M5.6-70.2c-0.2,0-0.3,0.1-0.5,0.2C5-69.8,5-69.7,5-69.5C5-69.3,5-69.2,5.1-69
				c0.3,0.3,0.7,0.2,0.9,0c0.1-0.1,0.2-0.3,0.2-0.5c0-0.2-0.1-0.3-0.2-0.5C5.9-70.1,5.8-70.2,5.6-70.2"/>
			<path clip-path="url(#SVGID_2_)" fill="#231F20" d="M3.1-13.7c-0.2,0-0.3,0.1-0.5,0.2c-0.1,0.1-0.2,0.3-0.2,0.4
				c0,0.2,0.1,0.3,0.2,0.5c0.2,0.3,0.7,0.2,0.9,0c0.1-0.1,0.2-0.3,0.2-0.5c0-0.2-0.1-0.3-0.2-0.5C3.4-13.6,3.3-13.7,3.1-13.7"/>
			<path clip-path="url(#SVGID_2_)" fill="#231F20" d="M16.9-3.7c-0.2,0-0.3,0.1-0.5,0.2c-0.1,0.1-0.2,0.3-0.2,0.5
				c0,0.2,0.1,0.3,0.2,0.5c0.2,0.2,0.7,0.2,0.9,0c0.1-0.1,0.2-0.3,0.2-0.5c0-0.2-0.1-0.3-0.2-0.5C17.2-3.6,17-3.7,16.9-3.7"/>
			<path clip-path="url(#SVGID_2_)" fill="#231F20" d="M40.9-4.9c-0.2,0-0.3,0.1-0.5,0.2c-0.1,0.1-0.2,0.3-0.2,0.5
				c0,0.2,0.1,0.3,0.2,0.5c0.3,0.2,0.7,0.2,0.9,0c0.1-0.1,0.2-0.3,0.2-0.5c0-0.2-0.1-0.3-0.2-0.5C41.2-4.8,41-4.9,40.9-4.9"/>
			<path clip-path="url(#SVGID_2_)" fill="#231F20" d="M3.1-32.4c-0.2,0-0.3,0.1-0.5,0.2c-0.1,0.1-0.2,0.3-0.2,0.5
				c0,0.2,0.1,0.3,0.2,0.5c0.2,0.2,0.7,0.2,0.9,0c0.1-0.1,0.2-0.3,0.2-0.5c0-0.2-0.1-0.3-0.2-0.5C3.4-32.3,3.3-32.4,3.1-32.4"/>
			<path clip-path="url(#SVGID_2_)" fill="#231F20" d="M7.9-25.4c-0.2,0-0.3,0.1-0.5,0.2c-0.1,0.1-0.2,0.3-0.2,0.5
				c0,0.2,0.1,0.3,0.2,0.5c0.2,0.2,0.7,0.2,0.9,0c0.1-0.1,0.2-0.3,0.2-0.5c0-0.2-0.1-0.3-0.2-0.5C8.2-25.3,8-25.4,7.9-25.4"/>
			<path clip-path="url(#SVGID_2_)" fill="#231F20" d="M4.4-47.2c-0.2,0-0.3,0.1-0.5,0.2c-0.1,0.1-0.2,0.3-0.2,0.5s0.1,0.3,0.2,0.5
				c0.2,0.2,0.7,0.3,0.9,0C4.9-46.2,5-46.3,5-46.5S4.9-46.8,4.8-47C4.7-47.1,4.5-47.2,4.4-47.2"/>
			<path clip-path="url(#SVGID_2_)" fill="#231F20" d="M11.4-50.9c-0.2,0-0.3,0.1-0.5,0.2c-0.1,0.1-0.2,0.3-0.2,0.5
				c0,0.2,0.1,0.3,0.2,0.5c0.2,0.2,0.7,0.2,0.9,0c0.1-0.1,0.2-0.3,0.2-0.5s-0.1-0.3-0.2-0.5C11.7-50.8,11.5-50.9,11.4-50.9"/>
			<path clip-path="url(#SVGID_2_)" fill="#231F20" d="M10.4-60.2c-0.2,0-0.3,0.1-0.5,0.2c-0.1,0.1-0.2,0.3-0.2,0.5s0.1,0.3,0.2,0.5
				c0.2,0.2,0.7,0.2,0.9,0c0.1-0.1,0.2-0.3,0.2-0.5s-0.1-0.3-0.2-0.5C10.7-60.1,10.5-60.2,10.4-60.2"/>
			<path clip-path="url(#SVGID_2_)" fill="#231F20" d="M13.9-66.2c-0.2,0-0.3,0.1-0.5,0.2c-0.1,0.1-0.2,0.3-0.2,0.5
				c0,0.2,0.1,0.3,0.2,0.5c0.2,0.2,0.7,0.3,0.9,0c0.1-0.1,0.2-0.3,0.2-0.5c0-0.2-0.1-0.3-0.2-0.5C14.2-66.1,14-66.2,13.9-66.2"/>
			<path clip-path="url(#SVGID_2_)" fill="#231F20" d="M22.4-53.7c-0.2,0-0.3,0.1-0.5,0.2c-0.1,0.1-0.2,0.3-0.2,0.5
				c0,0.2,0.1,0.4,0.2,0.5c0.2,0.2,0.7,0.2,0.9,0c0.1-0.1,0.2-0.3,0.2-0.5s-0.1-0.3-0.2-0.5C22.7-53.6,22.5-53.7,22.4-53.7"/>
			<path clip-path="url(#SVGID_2_)" fill="#231F20" d="M31.6-37.9c-0.2,0-0.3,0.1-0.5,0.2C31-37.6,31-37.4,31-37.3
				c0,0.2,0.1,0.3,0.2,0.5c0.2,0.2,0.7,0.2,0.9,0c0.1-0.1,0.2-0.3,0.2-0.5c0-0.2-0.1-0.3-0.2-0.5C31.9-37.8,31.8-37.9,31.6-37.9"/>
			<path clip-path="url(#SVGID_2_)" fill="#231F20" d="M26.4-34.4c-0.2,0-0.3,0.1-0.5,0.2c-0.1,0.1-0.2,0.3-0.2,0.5
				c0,0.2,0.1,0.3,0.2,0.5c0.3,0.3,0.7,0.2,0.9,0c0.1-0.1,0.2-0.3,0.2-0.5c0-0.2-0.1-0.3-0.2-0.5C26.7-34.3,26.5-34.4,26.4-34.4"/>
			<path clip-path="url(#SVGID_2_)" fill="#231F20" d="M37.6-28.9c-0.2,0-0.3,0.1-0.5,0.2C37-28.6,37-28.4,37-28.3
				c0,0.2,0.1,0.3,0.2,0.5c0.2,0.2,0.7,0.2,0.9,0c0.1-0.1,0.2-0.3,0.2-0.5c0-0.2-0.1-0.3-0.2-0.5C37.9-28.8,37.8-28.9,37.6-28.9"/>
			<path clip-path="url(#SVGID_2_)" fill="#231F20" d="M62.1-16.9c-0.2,0-0.3,0.1-0.5,0.2c-0.1,0.1-0.2,0.3-0.2,0.5
				c0,0.2,0.1,0.3,0.2,0.5c0.2,0.2,0.7,0.2,0.9,0c0.1-0.1,0.2-0.3,0.2-0.5c0-0.2-0.1-0.3-0.2-0.5C62.4-16.8,62.3-16.9,62.1-16.9"/>
			<path clip-path="url(#SVGID_2_)" fill="#231F20" d="M61.6-27.4c-0.2,0-0.3,0.1-0.5,0.2C61-27.1,61-26.9,61-26.8
				c0,0.2,0.1,0.3,0.2,0.5c0.2,0.2,0.7,0.2,0.9,0c0.1-0.1,0.2-0.3,0.2-0.5c0-0.2-0.1-0.3-0.2-0.5C61.9-27.3,61.8-27.4,61.6-27.4"/>
			<path clip-path="url(#SVGID_2_)" fill="#231F20" d="M59.1-57.4c-0.2,0-0.3,0.1-0.5,0.2c-0.1,0.1-0.2,0.3-0.2,0.5s0.1,0.3,0.2,0.5
				c0.2,0.2,0.7,0.2,0.9,0c0.1-0.1,0.2-0.3,0.2-0.5s-0.1-0.3-0.2-0.5C59.4-57.3,59.3-57.4,59.1-57.4"/>
			<path clip-path="url(#SVGID_2_)" fill="#231F20" d="M59.6-44.7c-0.2,0-0.3,0.1-0.5,0.2C59-44.3,59-44.2,59-44s0.1,0.3,0.2,0.5
				c0.2,0.2,0.7,0.2,0.9,0c0.1-0.1,0.2-0.3,0.2-0.5s-0.1-0.3-0.2-0.5C59.9-44.6,59.8-44.7,59.6-44.7"/>
			<path clip-path="url(#SVGID_2_)" fill="#231F20" d="M56.1-35.9c-0.2,0-0.3,0.1-0.5,0.2c-0.1,0.1-0.2,0.3-0.2,0.5
				c0,0.2,0.1,0.3,0.2,0.5c0.2,0.2,0.7,0.2,0.9,0c0.1-0.1,0.2-0.3,0.2-0.5c0-0.2-0.1-0.3-0.2-0.5C56.4-35.8,56.3-35.9,56.1-35.9"/>
			<path clip-path="url(#SVGID_2_)" fill="#231F20" d="M69.6-70.9c-0.2,0-0.3,0.1-0.5,0.2C69-70.6,69-70.4,69-70.3
				c0,0.2,0.1,0.3,0.2,0.5c0.2,0.2,0.7,0.2,0.9,0c0.1-0.1,0.2-0.3,0.2-0.5c0-0.2-0.1-0.3-0.2-0.5C69.9-70.8,69.8-70.9,69.6-70.9"/>
			<path clip-path="url(#SVGID_2_)" fill="#231F20" d="M61.1-66.2c-0.2,0-0.3,0.1-0.5,0.2c-0.1,0.1-0.2,0.3-0.2,0.5
				c0,0.2,0.1,0.3,0.2,0.5c0.2,0.2,0.7,0.3,0.9,0c0.1-0.1,0.2-0.3,0.2-0.5c0-0.2-0.1-0.3-0.2-0.5C61.4-66.1,61.3-66.2,61.1-66.2"/>
			<path clip-path="url(#SVGID_2_)" fill="#231F20" d="M44.9-71.7c-0.2,0-0.3,0.1-0.5,0.2c-0.1,0.1-0.2,0.3-0.2,0.5
				c0,0.2,0.1,0.3,0.2,0.5c0.2,0.2,0.7,0.2,0.9,0c0.1-0.1,0.2-0.3,0.2-0.5c0-0.2-0.1-0.3-0.2-0.5C45.2-71.6,45-71.7,44.9-71.7"/>
			<path clip-path="url(#SVGID_2_)" fill="#231F20" d="M24.9-1.4c-0.2,0-0.3,0.1-0.5,0.2c-0.1,0.1-0.2,0.3-0.2,0.5
				c0,0.2,0.1,0.3,0.2,0.5c0.2,0.2,0.7,0.3,0.9,0c0.1-0.1,0.2-0.3,0.2-0.5c0-0.2-0.1-0.3-0.2-0.5C25.2-1.3,25-1.4,24.9-1.4"/>
			<path clip-path="url(#SVGID_2_)" fill="#231F20" d="M0.4-23.6c-0.1,0-0.2,0-0.3,0.1C0-23.4,0-23.3,0-23.3c0,0.1,0,0.2,0.1,0.3
				c0.1,0.1,0.4,0.1,0.5,0c0.1-0.1,0.1-0.2,0.1-0.3c0-0.1,0-0.2-0.1-0.3C0.5-23.6,0.4-23.6,0.4-23.6"/>
		</g>
	</g>
</pattern>
<g id="Livello_9">
	<rect x="0.6" fill="#0E113C" width="1341.7" height="791"/>
</g>
<g id="TERRA">
	<g>
		<defs>
			<rect id="SVGID_3_" y="-101.3" width="1342.4" height="892.3"/>
		</defs>
		<clipPath id="SVGID_4_">
			<use xlink:href="#SVGID_3_"  overflow="visible"/>
		</clipPath>
		<radialGradient id="SVGID_5_" cx="1017.702" cy="2138.9954" r="1784.5826" gradientUnits="userSpaceOnUse">
			<stop  offset="0.9247" style="stop-color:#5578AA"/>
			<stop  offset="0.9839" style="stop-color:#5578AA;stop-opacity:0"/>
		</radialGradient>
		<path clip-path="url(#SVGID_4_)" fill="url(#SVGID_5_)" d="M1017.7,354.4c-985.6,0-1784.6,799-1784.6,1784.6
			s799,1784.6,1784.6,1784.6s1784.6-799,1784.6-1784.6S2003.3,354.4,1017.7,354.4z M1017.7,3814c-925.1,0-1675-749.9-1675-1675
			S92.6,464,1017.7,464s1675,749.9,1675,1675S1942.8,3814,1017.7,3814z"/>
		<linearGradient id="SVGID_6_" gradientUnits="userSpaceOnUse" x1="727.0135" y1="711.9787" x2="675.436" y2="458.7805">
			<stop  offset="2.150538e-002" style="stop-color:#1C4484"/>
			<stop  offset="0.9355" style="stop-color:#021E33"/>
		</linearGradient>
		<circle clip-path="url(#SVGID_4_)" fill="url(#SVGID_6_)" cx="1017.7" cy="2139" r="1720.9"/>
	</g>
	<linearGradient id="SVGID_7_" gradientUnits="userSpaceOnUse" x1="671.1754" y1="791" x2="671.1754" y2="759.0717">
		<stop  offset="2.150538e-002" style="stop-color:#1C4484"/>
		<stop  offset="0.9355" style="stop-color:#1C4584;stop-opacity:0"/>
	</linearGradient>
	<rect y="759.1" fill="url(#SVGID_7_)" width="1342.4" height="31.9"/>
</g>
<g id="IMPIEGO">
	<path fill="#79C798" d="M1281.4,389.6c20.4,3.1,40.8,6.5,61,10.2V55.9c-20.2-3.1-40.6-6-61-8.5V389.6z"/>
	<path fill="#1D412E" d="M1183.5,377.8c32.9,3.1,65.5,7,97.8,11.8V47.4c-32.4-4-65-7.3-97.8-9.9V377.8z"/>
	<path fill="#8ACC9E" d="M1031.9,370.1c51.1,0.4,101.6,3,151.6,7.6V37.5c-50.1-3.9-100.6-6.1-151.6-6.4V370.1z"/>
	<path fill="#33815B" d="M684.7,57.2v344.2c107.9-20.5,219.2-31.3,333-31.3c4.8,0,9.5,0,14.2,0.1v-339c-4.7,0-9.5,0-14.2,0
		C904.4,31,793.2,40,684.7,57.2z"/>
	<path fill="#51BC87" d="M0,692c201.3-141.9,433.6-242.8,684.7-290.6V57.2C439.9,96.1,209.1,177.1,0,292.6V692z"/>
</g>
<g id="PROPRIETARIO" display="none">
	<path display="inline" fill="#5B617F" d="M0.6,691.5C189,558.9,404.5,462.1,637.1,411.1V65.3C410.2,106.7,195.9,184.4,0.6,292.2
		V691.5z"/>
	<path display="inline" fill="#909ACA" d="M637.1,411.1c105.7-23.2,215-36.9,326.8-40.2V31.7c-111.3,2.8-220.5,14.2-326.8,33.6
		V411.1z"/>
	<path display="inline" fill="#566085" d="M963.9,31.7v339.2c17.9-0.5,35.8-0.8,53.8-0.8c75,0,148.9,4.7,221.4,13.7V42.5
		C1166.4,35,1092.5,31,1017.7,31C999.7,31,981.8,31.3,963.9,31.7z"/>
	<path display="inline" fill="#B7BEE0" d="M1239.1,383.8c34.7,4.3,69.1,9.7,103.2,16V55.9c-34.1-5.3-68.6-9.7-103.2-13.4V383.8z"/>
</g>
<g id="NAZIONE" display="none">
	<path display="inline" fill="#614EA0" d="M0.6,691.5c200.9-141.4,432.6-242.1,683.1-290V57.4C439.5,96.2,209.2,177.1,0.6,292.2
		V691.5z"/>
	<path display="inline" fill="#2E2561" d="M683.7,401.6c71.7-13.7,145-23.1,219.6-27.8V34.1c-74.3,4-147.5,11.8-219.6,23.3V401.6z"
		/>
	<path display="inline" fill="#553B97" d="M903.2,34.1v339.6c37.8-2.4,76-3.6,114.5-3.6c29.1,0,58,0.7,86.8,2.1V32.8
		c-28.8-1.2-57.7-1.8-86.8-1.8C979.3,31,941.1,32.1,903.2,34.1z"/>
	<path display="inline" fill="#C9B5D8" d="M1104.5,372.2c55.6,2.7,110.5,7.9,164.7,15.6V45.9c-54.3-6.5-109.2-10.8-164.7-13.1V372.2
		z"/>
	<path display="inline" fill="#442F63" d="M1269.2,387.8c24.6,3.5,49,7.5,73.2,12V55.9c-24.3-3.8-48.7-7.1-73.2-10V387.8z"/>
</g>
<g id="DEBRIS">
	<pattern  id="SVGID_8_" xlink:href="#Unnamed_Pattern_3" patternTransform="matrix(1 0 0 -1 128 4504.2578)">
	</pattern>
	<path fill="url(#SVGID_8_)" d="M0,524.9v78.6c291.6-193.6,641.5-306.5,1017.7-306.5c110.8,0,219.3,9.8,324.6,28.5v-67
		c-105.5-18.1-214-27.5-324.6-27.5C643.5,231.1,294.5,338.8,0,524.9z"/>
	<pattern  id="SVGID_9_" xlink:href="#Unnamed_Pattern_3" patternTransform="matrix(1 0 0 -1 128 4504.2578)">
	</pattern>
	<path fill="url(#SVGID_9_)" d="M0,396.6v48.9c297.2-179,645.4-282,1017.7-282c110.6,0,219,9.1,324.6,26.5v-42.6
		c-105.7-17.1-214.1-26-324.6-26C646.5,121.5,298.8,221.7,0,396.6z"/>
	<pattern  id="SVGID_10_" xlink:href="#Unnamed_Pattern_3" patternTransform="matrix(1 0 0 -1 128 4504.2578)">
	</pattern>
	<path fill="url(#SVGID_10_)" d="M0,290.6V691c287.2-201,636.8-318.9,1014-318.9c112.2,0,222,10.4,328.4,30.4V57
		c-107-16.7-216.7-25.4-328.4-25.4C646.5,31.6,300.9,125.5,0,290.6z"/>
</g>
<g id="DIDIMPIEGO">
	<g>
		<g>
			<polyline fill="none" stroke="#FFFFFF" stroke-width="1.7008" stroke-linecap="round" stroke-miterlimit="10" points="
				685.5,557.8 478.1,557.8 318.8,325.6 			"/>
			<g>
				<circle fill="#FFFFFF" cx="318.8" cy="325.6" r="6.4"/>
			</g>
		</g>
	</g>
	<text transform="matrix(1 0 0 1 499.9955 548.0691)" fill="#FFFFFF" font-family="'GTAmerica-CompressedThin'" font-size="30">TELECOMUNICAZIONI</text>
	<g>
		<g>
			<polyline fill="none" stroke="#FFFFFF" stroke-width="1.7008" stroke-linecap="round" stroke-miterlimit="10" points="851,485.9 
				741.5,485.9 724,213.5 			"/>
			<g>
				<circle fill="#FFFFFF" cx="724" cy="213.5" r="6.4"/>
			</g>
		</g>
	</g>
	<text transform="matrix(1 0 0 1 763.6056 476.1283)" fill="#FFFFFF" font-family="'GTAmerica-CompressedThin'" font-size="30">IMMAGINI</text>
	<g>
		<g>
			<polyline fill="none" stroke="#FFFFFF" stroke-width="1.7008" stroke-linecap="round" stroke-miterlimit="10" points="
				1113,485.8 1211.4,485.8 1232.5,211.5 			"/>
			<g>
				<circle fill="#FFFFFF" cx="1232.5" cy="211.5" r="6.4"/>
			</g>
		</g>
	</g>
	<g>
		<g>
			<polyline fill="none" stroke="#FFFFFF" stroke-width="1.7008" stroke-linecap="round" stroke-miterlimit="10" points="
				917.7,485.8 1057,485.8 1106,196.6 			"/>
			<g>
				<circle fill="#FFFFFF" cx="1105.9" cy="196.6" r="6.4"/>
			</g>
		</g>
	</g>
	<text transform="matrix(1 0 0 1 1112.9501 476.003)" fill="#FFFFFF" font-family="'GTAmerica-CompressedThin'" font-size="30">RICERCA</text>
	<text transform="matrix(1 0 0 1 917.6532 476.0273)" fill="#FFFFFF" font-family="'GTAmerica-CompressedThin'" font-size="30">NAVIGAZIONE</text>
	<g>
		<g>
			<polyline fill="none" stroke="#FFFFFF" stroke-width="1.7008" stroke-linecap="round" stroke-miterlimit="10" points="
				1083.6,557.8 1255.9,557.8 1315.8,223.6 			"/>
			<g>
				<circle fill="#FFFFFF" cx="1315.8" cy="223.6" r="6.4"/>
			</g>
		</g>
	</g>
	<text transform="matrix(1 0 0 1 1083.6443 548.069)" fill="#FFFFFF" font-family="'GTAmerica-CompressedThin'" font-size="30">SPACE SCIENCE</text>
</g>
<g id="DIDPROPRIETARIO" display="none">
	<g display="inline">
		<g>
			<polyline fill="none" stroke="#FFFFFF" stroke-width="1.7008" stroke-linecap="round" stroke-miterlimit="10" points="
				617.1,557.8 478.1,557.8 302.1,325.6 			"/>
			<g>
				<circle fill="#FFFFFF" cx="302.1" cy="325.6" r="6.4"/>
			</g>
		</g>
	</g>
	
		<text transform="matrix(1 0 0 1 492.3781 548.0691)" display="inline" fill="#FFFFFF" font-family="'GTAmerica-CompressedThin'" font-size="30">COMMERCIALI</text>
	<g display="inline">
		<g>
			<polyline fill="none" stroke="#FFFFFF" stroke-width="1.7008" stroke-linecap="round" stroke-miterlimit="10" points="
				872.1,485.9 741.5,485.9 707.1,216.2 			"/>
			<g>
				<circle fill="#FFFFFF" cx="707.1" cy="216.2" r="6.4"/>
			</g>
		</g>
	</g>
	
		<text transform="matrix(1 0 0 1 756.0353 476.1283)" display="inline" fill="#FFFFFF" font-family="'GTAmerica-CompressedThin'" font-size="30">GOVERNATIVI</text>
	<g display="inline">
		<g>
			<polyline fill="none" stroke="#FFFFFF" stroke-width="1.7008" stroke-linecap="round" stroke-miterlimit="10" points="
				1141,485.8 1031.9,485.8 1095.5,196.6 			"/>
			<g>
				<circle fill="#FFFFFF" cx="1095.5" cy="196.6" r="6.4"/>
			</g>
		</g>
	</g>
	
		<text transform="matrix(1 0 0 1 1061.0869 476.0273)" display="inline" fill="#FFFFFF" font-family="'GTAmerica-CompressedThin'" font-size="30">PUBBLICI</text>
	<g display="inline">
		<g>
			<polyline fill="none" stroke="#FFFFFF" stroke-width="1.7008" stroke-linecap="round" stroke-miterlimit="10" points="
				1083.6,557.8 1255.9,557.8 1305.8,223.6 			"/>
			<g>
				<circle fill="#FFFFFF" cx="1305.8" cy="223.6" r="6.4"/>
			</g>
		</g>
	</g>
	
		<text transform="matrix(1 0 0 1 1083.6443 548.069)" display="inline" fill="#FFFFFF" font-family="'GTAmerica-CompressedThin'" font-size="30">MULTINAZIONALI</text>
</g>
<g id="DIDNAZIONE" display="none">
	<g display="inline">
		<g>
			<polyline fill="none" stroke="#FFFFFF" stroke-width="1.7008" stroke-linecap="round" stroke-miterlimit="10" points="
				598.9,557.8 478.1,557.8 318.8,325.6 			"/>
			<g>
				<circle fill="#FFFFFF" cx="318.8" cy="325.6" r="6.4"/>
			</g>
		</g>
	</g>
	
		<text transform="matrix(1 0 0 1 497.0662 548.0691)" display="inline" fill="#FFFFFF" font-family="'GTAmerica-CompressedThin'" font-size="30">STATI UNITI</text>
	<g display="inline">
		<g>
			<polyline fill="none" stroke="#FFFFFF" stroke-width="1.7008" stroke-linecap="round" stroke-miterlimit="10" points="
				810.5,485.9 741.5,485.9 724,213.5 			"/>
			<g>
				<circle fill="#FFFFFF" cx="724" cy="213.5" r="6.4"/>
			</g>
		</g>
	</g>
	
		<text transform="matrix(1 0 0 1 767.3567 476.1283)" display="inline" fill="#FFFFFF" font-family="'GTAmerica-CompressedThin'" font-size="30">CINA</text>
	<g display="inline">
		<g>
			<polyline fill="none" stroke="#FFFFFF" stroke-width="1.7008" stroke-linecap="round" stroke-miterlimit="10" points="
				1035,485.8 939.9,485.8 1003.9,193.6 			"/>
			<g>
				<circle fill="#FFFFFF" cx="1003.9" cy="193.6" r="6.4"/>
			</g>
		</g>
	</g>
	
		<text transform="matrix(1 0 0 1 964.8851 476.0273)" display="inline" fill="#FFFFFF" font-family="'GTAmerica-CompressedThin'" font-size="30">EUROPA</text>
	<g display="inline">
		<g>
			<polyline fill="none" stroke="#FFFFFF" stroke-width="1.7008" stroke-linecap="round" stroke-miterlimit="10" points="
				1207.7,485.8 1122.9,485.8 1183.5,205.4 			"/>
			<g>
				<circle fill="#FFFFFF" cx="1183.5" cy="205.4" r="6.4"/>
			</g>
		</g>
	</g>
	
		<text transform="matrix(1 0 0 1 1144.5514 476.003)" display="inline" fill="#FFFFFF" font-family="'GTAmerica-CompressedThin'" font-size="30">RUSSIA</text>
	<g display="inline">
		<g>
			<polyline fill="none" stroke="#FFFFFF" stroke-width="1.7008" stroke-linecap="round" stroke-miterlimit="10" points="
				1083.6,557.8 1255.9,557.8 1305.8,223.6 			"/>
			<g>
				<circle fill="#FFFFFF" cx="1305.8" cy="223.6" r="6.4"/>
			</g>
		</g>
	</g>
	
		<text transform="matrix(1 0 0 1 1083.6443 548.069)" display="inline" fill="#FFFFFF" font-family="'GTAmerica-CompressedThin'" font-size="30">MULTINAZIONALI</text>
</g>
<g id="H">
	<path fill="none" stroke="#FFFFFF" stroke-miterlimit="10" d="M0,603.5c291.6-193.6,641.5-306.4,1017.7-306.4
		c110.8,0,219.3,9.8,324.6,28.5"/>
	<path fill="none" stroke="#FFFFFF" stroke-miterlimit="10" d="M0,524.9c294.5-186.1,643.5-293.8,1017.7-293.8
		c110.7,0,219.1,9.4,324.7,27.5"/>
	<path fill="none" stroke="#FFFFFF" stroke-miterlimit="10" d="M0,445.4c297.2-179,645.4-282,1017.7-282c110.6,0,219,9.1,324.6,26.5
		"/>
	<path fill="none" stroke="#FFFFFF" stroke-miterlimit="10" d="M0,396.6c298.8-174.9,646.5-275.1,1017.7-275.1
		c110.5,0,219,8.9,324.6,26"/>
</g>
<g id="PULSANTI">
	<rect x="71.1" y="46.2" fill="none" width="408" height="53.2"/>
	<text transform="matrix(1 0 0 1 71.1122 62.1538)"><tspan x="0" y="0" fill="#FFFFFF" font-family="'GTAmerica-CompressedThin'" font-size="22">IMPIEGO</tspan><tspan x="54.2" y="0" fill="#FFFFFF" font-family="'GTAmerica-CompressedThin'" font-size="22" letter-spacing="45"> </tspan><tspan x="103.6" y="0" fill="#FFFFFF" font-family="'GTAmerica-CompressedThin'" font-size="22">|</tspan><tspan x="107.1" y="0" fill="#FFFFFF" font-family="'GTAmerica-CompressedThin'" font-size="22" letter-spacing="45"> </tspan><tspan x="156.5" y="0" fill="#FFFFFF" font-family="'GTAmerica-CompressedThin'" font-size="22">PROPRIETARIO</tspan><tspan x="248.8" y="0" fill="#FFFFFF" font-family="'GTAmerica-CompressedThin'" font-size="22" letter-spacing="45"> </tspan><tspan x="298.1" y="0" fill="#FFFFFF" font-family="'GTAmerica-CompressedThin'" font-size="22">|</tspan><tspan x="301.7" y="0" fill="#FFFFFF" font-family="'GTAmerica-CompressedThin'" font-size="22" letter-spacing="45"> </tspan><tspan x="351.1" y="0" fill="#FFFFFF" font-family="'GTAmerica-CompressedThin'" font-size="22">NAZIONE</tspan></text>
</g>
<g id="FISSE">
	<g>
		<text transform="matrix(1 0 0 1 764.0701 68.3622)" fill="#FFFFFF" font-family="'SpaceMono-Regular'" font-size="14">2000 km</text>
	</g>
	<g>
		<text transform="matrix(1 0 0 1 764.0701 373.3244)" fill="#FFFFFF" font-family="'SpaceMono-Regular'" font-size="14">200 km</text>
	</g>
	<g>
		<text transform="matrix(1 0 0 1 764.0701 284.3244)" fill="#FFFFFF" font-family="'SpaceMono-Regular'" font-size="14">800 km</text>
	</g>
	<g>
		<text transform="matrix(1 0 0 1 764.0701 163.3244)" fill="#FFFFFF" font-family="'SpaceMono-Regular'" font-size="14">1400 km</text>
	</g>
</g>
<g id="Livello_10">
</g>
</svg>
